<?xml version="1.0" standalone="no"?>
  <!DOCTYPE svg PUBLIC "-//W3C//DTD SVG 1.1//EN" 
    "http://www.w3.org/Graphics/SVG/1.1/DTD/svg11.dtd">
  <svg width="21cm" height="29.7cm"
       xmlns="http://www.w3.org/2000/svg" version="1.1" viewBox="0 0 744.09447 1052.36218">
   <g>
     <path d="M 402.16534 263.97637 L 359.64566 263.97637 M 306.49606 269.29133 L 317.12598 269.29133 M 455.31495 274.60629 L 449.99999 274.60629 M 439.37007 274.60629 L 418.11023 274.60629 M 354.33070 279.92125 L 359.64566 279.92125 M 402.16534 279.92125 L 407.48030 279.92125 M 481.88975 285.23621 L 439.37007 285.23621 M 412.79527 290.55117 L 418.11023 290.55117 M 497.83463 295.86613 L 487.20471 295.86613 M 359.64566 295.86613 L 343.70078 295.86613 M 301.18110 295.86613 L 295.86613 295.86613 M 274.60629 301.18110 L 279.92125 301.18110 M 402.16534 301.18110 L 418.11023 301.18110 M 481.88975 306.49606 L 449.99999 306.49606 M 439.37007 306.49606 L 418.11023 306.49606 M 258.66141 311.81102 L 295.86613 311.81102 M 327.75590 311.81102 L 333.07086 311.81102 M 338.38582 311.81102 L 359.64566 311.81102 M 519.09448 311.81102 L 524.40944 311.81102 M 535.03936 317.12598 L 439.37007 317.12598 M 338.38582 322.44094 L 343.70078 322.44094 M 418.11023 327.75590 L 402.16534 327.75590 M 205.51181 333.07086 L 242.71653 333.07086 M 322.44094 333.07086 L 343.70078 333.07086 M 434.05511 333.07086 L 439.37007 333.07086 M 535.03936 333.07086 L 550.98424 333.07086 M 205.51181 338.38582 L 200.19685 338.38582 M 460.62991 349.01574 L 439.37007 349.01574 M 359.64566 349.01574 L 343.70078 349.01574 M 306.49606 349.01574 L 295.86613 349.01574 M 354.33070 354.33070 L 359.64566 354.33070 M 535.03936 354.33070 L 572.24408 354.33070 M 535.03936 359.64566 L 434.05511 359.64566 M 322.44094 359.64566 L 317.12598 359.64566 M 205.51181 359.64566 L 200.19685 359.64566 M 157.67716 364.96062 L 194.88189 364.96062 M 253.34645 364.96062 L 258.66141 364.96062 M 317.12598 364.96062 L 359.64566 364.96062 M 460.62991 364.96062 L 535.03936 364.96062 M 535.03936 370.27558 L 503.14959 370.27558 M 200.19685 370.27558 L 194.88189 370.27558 M 295.86613 375.59054 L 306.49606 375.59054 M 402.16534 375.59054 L 418.11023 375.59054 M 535.03936 375.59054 L 545.66928 375.59054 M 593.50392 380.90550 L 481.88975 380.90550 M 306.49606 380.90550 L 295.86613 380.90550 M 258.66141 380.90550 L 253.34645 380.90550 M 317.12598 386.22046 L 359.64566 386.22046 M 598.81888 391.53542 L 545.66928 391.53542 M 434.05511 391.53542 L 418.11023 391.53542 M 242.71653 391.53542 L 157.67716 391.53542 M 141.73228 396.85038 L 157.67716 396.85038 M 242.71653 396.85038 L 258.66141 396.85038 M 317.12598 396.85038 L 322.44094 396.85038 M 338.38582 402.16534 L 317.12598 402.16534 M 242.71653 402.16534 L 168.30708 402.16534 M 418.11023 407.48030 L 434.05511 407.48030 M 545.66928 407.48030 L 566.92912 407.48030 M 609.44880 412.79527 L 418.11023 412.79527 M 338.38582 412.79527 L 317.12598 412.79527 M 306.49606 412.79527 L 258.66141 412.79527 M 131.10236 418.11023 L 157.67716 418.11023 M 279.92125 418.11023 L 306.49606 418.11023 M 327.75590 423.42519 L 322.44094 423.42519 M 317.12598 423.42519 L 306.49606 423.42519 M 279.92125 423.42519 L 258.66141 423.42519 M 242.71653 428.74015 L 311.81102 428.74015 M 343.70078 428.74015 L 418.11023 428.74015 M 609.44880 428.74015 L 614.76376 428.74015 M 620.07872 434.05511 L 614.76376 434.05511 M 120.47244 439.37007 L 131.10236 439.37007 M 311.81102 439.37007 L 317.12598 439.37007 M 322.44094 444.68503 L 279.92125 444.68503 M 168.30708 444.68503 L 120.47244 444.68503 M 168.30708 449.99999 L 279.92125 449.99999 M 343.70078 449.99999 L 418.11023 449.99999 M 380.90550 455.31495 L 375.59054 455.31495 M 370.27558 455.31495 L 359.64566 455.31495 M 354.33070 455.31495 L 322.44094 455.31495 M 178.93700 455.31495 L 120.47244 455.31495 M 375.59054 460.62991 L 380.90550 460.62991 M 609.44880 465.94487 L 412.79527 465.94487 M 279.92125 465.94487 L 242.71653 465.94487 M 237.40157 465.94487 L 178.93700 465.94487 M 152.36220 471.25983 L 157.67716 471.25983 M 178.93700 471.25983 L 194.88189 471.25983 M 391.53542 471.25983 L 412.79527 471.25983 M 418.11023 471.25983 L 492.51967 471.25983 M 503.14959 471.25983 L 524.40944 471.25983 M 630.70865 476.57479 L 620.07872 476.57479 M 588.18896 476.57479 L 577.55904 476.57479 M 503.14959 476.57479 L 492.51967 476.57479 M 205.51181 476.57479 L 109.84252 476.57479 M 242.71653 481.88975 L 248.03149 481.88975 M 412.79527 481.88975 L 487.20471 481.88975 M 577.55904 481.88975 L 588.18896 481.88975 M 630.70865 487.20471 L 614.76376 487.20471 M 279.92125 487.20471 L 248.03149 487.20471 M 598.81888 492.51967 L 609.44880 492.51967 M 614.76376 492.51967 L 636.02361 492.51967 M 614.76376 497.83463 L 545.66928 497.83463 M 540.35432 497.83463 L 535.03936 497.83463 M 391.53542 497.83463 L 370.27558 497.83463 M 295.86613 497.83463 L 279.92125 497.83463 M 216.14173 497.83463 L 205.51181 497.83463 M 152.36220 503.14959 L 178.93700 503.14959 M 269.29133 503.14959 L 354.33070 503.14959 M 529.72440 503.14959 L 636.02361 503.14959 M 636.02361 508.46455 L 630.70865 508.46455 M 492.51967 508.46455 L 487.20471 508.46455 M 269.29133 508.46455 L 237.40157 508.46455 M 503.14959 513.77952 L 636.02361 513.77952 M 487.20471 519.09448 L 370.27558 519.09448 M 205.51181 519.09448 L 178.93700 519.09448 M 104.52756 524.40944 L 178.93700 524.40944 M 566.92912 524.40944 L 614.76376 524.40944 M 370.27558 529.72440 L 349.01574 529.72440 M 152.36220 535.03936 L 168.30708 535.03936 M 471.25983 535.03936 L 487.20471 535.03936 M 636.02361 540.35432 L 566.92912 540.35432 M 370.27558 540.35432 L 306.49606 540.35432 M 503.14959 545.66928 L 598.81888 545.66928 M 168.30708 556.29920 L 178.93700 556.29920 M 205.51181 556.29920 L 295.86613 556.29920 M 471.25983 556.29920 L 487.20471 556.29920 M 625.39369 556.29920 L 636.02361 556.29920 M 471.25983 561.61416 L 444.68503 561.61416 M 104.52756 566.92912 L 152.36220 566.92912 M 168.30708 566.92912 L 178.93700 566.92912 M 333.07086 566.92912 L 418.11023 566.92912 M 503.14959 566.92912 L 625.39369 566.92912 M 503.14959 572.24408 L 492.51967 572.24408 M 354.33070 572.24408 L 333.07086 572.24408 M 168.30708 577.55904 L 178.93700 577.55904 M 487.20471 577.55904 L 497.83463 577.55904 M 625.39369 582.87400 L 471.25983 582.87400 M 444.68503 582.87400 L 418.11023 582.87400 M 295.86613 582.87400 L 205.51181 582.87400 M 173.62204 582.87400 L 152.36220 582.87400 M 131.10236 582.87400 L 115.15748 582.87400 M 157.67716 588.18896 L 173.62204 588.18896 M 226.77165 588.18896 L 258.66141 588.18896 M 471.25983 588.18896 L 636.02361 588.18896 M 620.07872 593.50392 L 614.76376 593.50392 M 550.98424 593.50392 L 545.66928 593.50392 M 535.03936 593.50392 L 434.05511 593.50392 M 354.33070 593.50392 L 306.49606 593.50392 M 263.97637 593.50392 L 258.66141 593.50392 M 242.71653 593.50392 L 205.51181 593.50392 M 173.62204 593.50392 L 157.67716 593.50392 M 157.67716 598.81888 L 162.99212 598.81888 M 354.33070 598.81888 L 418.11023 598.81888 M 566.92912 598.81888 L 577.55904 598.81888 M 508.46455 604.13384 L 370.27558 604.13384 M 258.66141 604.13384 L 242.71653 604.13384 M 115.15748 609.44880 L 173.62204 609.44880 M 258.66141 609.44880 L 263.97637 609.44880 M 481.88975 609.44880 L 508.46455 609.44880 M 577.55904 609.44880 L 630.70865 609.44880 M 354.33070 614.76376 L 131.10236 614.76376 M 508.46455 620.07872 L 535.03936 620.07872 M 566.92912 620.07872 L 577.55904 620.07872 M 625.39369 625.39369 L 561.61416 625.39369 M 412.79527 625.39369 L 370.27558 625.39369 M 131.10236 625.39369 L 120.47244 625.39369 M 545.66928 630.70865 L 550.98424 630.70865 M 614.76376 636.02361 L 465.94487 636.02361 M 434.05511 636.02361 L 359.64566 636.02361 M 189.56692 636.02361 L 168.30708 636.02361 M 529.72440 641.33857 L 614.76376 641.33857 M 609.44880 646.65353 L 529.72440 646.65353 M 407.48030 646.65353 L 359.64566 646.65353 M 295.86613 646.65353 L 232.08661 646.65353 M 131.10236 651.96849 L 136.41732 651.96849 M 141.73228 651.96849 L 168.30708 651.96849 M 349.01574 651.96849 L 396.85038 651.96849 M 418.11023 651.96849 L 439.37007 651.96849 M 295.86613 657.28345 L 248.03149 657.28345 M 141.73228 657.28345 L 136.41732 657.28345 M 258.66141 662.59841 L 263.97637 662.59841 M 279.92125 662.59841 L 290.55117 662.59841 M 439.37007 662.59841 L 465.94487 662.59841 M 529.72440 667.91337 L 481.88975 667.91337 M 465.94487 667.91337 L 439.37007 667.91337 M 152.36220 667.91337 L 141.73228 667.91337 M 168.30708 673.22833 L 295.86613 673.22833 M 609.44880 678.54329 L 465.94487 678.54329 M 258.66141 678.54329 L 184.25196 678.54329 M 152.36220 678.54329 L 147.04724 678.54329 M 152.36220 683.85825 L 168.30708 683.85825 M 232.08661 683.85825 L 295.86613 683.85825 M 439.37007 683.85825 L 465.94487 683.85825 M 439.37007 689.17321 L 290.55117 689.17321 M 168.30708 694.48817 L 216.14173 694.48817 M 258.66141 699.80313 L 232.08661 699.80313 M 178.93700 705.11809 L 290.55117 705.11809 M 465.94487 705.11809 L 588.18896 705.11809 M 513.77952 710.43305 L 508.46455 710.43305 M 465.94487 710.43305 L 439.37007 710.43305 M 178.93700 715.74801 L 370.27558 715.74801 M 566.92912 721.06297 L 550.98424 721.06297 M 513.77952 721.06297 L 508.46455 721.06297 M 306.49606 721.06297 L 216.14173 721.06297 M 317.12598 726.37793 L 322.44094 726.37793 M 338.38582 726.37793 L 354.33070 726.37793 M 380.90550 731.69290 L 200.19685 731.69290 M 200.19685 737.00786 L 226.77165 737.00786 M 232.08661 737.00786 L 253.34645 737.00786 M 370.27558 737.00786 L 439.37007 737.00786 M 550.98424 742.32282 L 508.46455 742.32282 M 497.83463 742.32282 L 465.94487 742.32282 M 263.97637 742.32282 L 248.03149 742.32282 M 524.40944 752.95274 L 508.46455 752.95274 M 465.94487 752.95274 L 439.37007 752.95274 M 232.08661 752.95274 L 226.77165 752.95274 M 396.85038 758.26770 L 465.94487 758.26770 M 508.46455 763.58266 L 497.83463 763.58266 M 407.48030 763.58266 L 386.22046 763.58266 M 370.27558 763.58266 L 263.97637 763.58266 M 248.03149 768.89762 L 258.66141 768.89762 M 333.07086 768.89762 L 386.22046 768.89762 M 487.20471 768.89762 L 497.83463 768.89762 M 487.20471 774.21258 L 407.48030 774.21258 M 333.07086 774.21258 L 306.49606 774.21258 M 380.90550 779.52754 L 386.22046 779.52754 M 306.49606 790.15746 L 333.07086 790.15746 M 407.48030 790.15746 L 465.94487 790.15746 M 407.48030 795.47242 L 386.22046 795.47242 M 370.27558 795.47242 L 333.07086 795.47242 M 104.52756 566.92912 L 104.52756 524.40944 M 109.84252 476.57479 L 109.84252 524.40944 M 115.15748 609.44880 L 115.15748 582.87400 M 120.47244 439.37007 L 120.47244 455.31495 M 120.47244 609.44880 L 120.47244 625.39369 M 131.10236 418.11023 L 131.10236 444.68503 M 131.10236 566.92912 L 131.10236 651.96849 M 136.41732 657.28345 L 136.41732 566.92912 M 141.73228 396.85038 L 141.73228 418.11023 M 141.73228 614.76376 L 141.73228 667.91337 M 147.04724 678.54329 L 147.04724 667.91337 M 147.04724 418.11023 L 147.04724 396.85038 M 152.36220 471.25983 L 152.36220 609.44880 M 152.36220 651.96849 L 152.36220 683.85825 M 157.67716 609.44880 L 157.67716 582.87400 M 157.67716 476.57479 L 157.67716 455.31495 M 157.67716 444.68503 L 157.67716 396.85038 M 157.67716 391.53542 L 157.67716 364.96062 M 162.99212 524.40944 L 162.99212 535.03936 M 162.99212 593.50392 L 162.99212 609.44880 M 168.30708 694.48817 L 168.30708 614.76376 M 168.30708 582.87400 L 168.30708 524.40944 M 168.30708 455.31495 L 168.30708 402.16534 M 173.62204 455.31495 L 173.62204 476.57479 M 173.62204 577.55904 L 173.62204 614.76376 M 178.93700 715.74801 L 178.93700 705.11809 M 178.93700 614.76376 L 178.93700 449.99999 M 178.93700 402.16534 L 178.93700 391.53542 M 184.25196 673.22833 L 184.25196 705.11809 M 189.56692 673.22833 L 189.56692 614.76376 M 194.88189 364.96062 L 194.88189 391.53542 M 194.88189 471.25983 L 194.88189 476.57479 M 200.19685 737.00786 L 200.19685 731.69290 M 200.19685 391.53542 L 200.19685 370.27558 M 200.19685 359.64566 L 200.19685 338.38582 M 205.51181 333.07086 L 205.51181 402.16534 M 205.51181 476.57479 L 205.51181 614.76376 M 216.14173 465.94487 L 216.14173 556.29920 M 216.14173 694.48817 L 216.14173 705.11809 M 216.14173 721.06297 L 216.14173 731.69290 M 221.45669 402.16534 L 221.45669 391.53542 M 226.77165 582.87400 L 226.77165 593.50392 M 226.77165 721.06297 L 226.77165 752.95274 M 232.08661 752.95274 L 232.08661 731.69290 M 232.08661 699.80313 L 232.08661 683.85825 M 232.08661 673.22833 L 232.08661 614.76376 M 237.40157 449.99999 L 237.40157 556.29920 M 242.71653 646.65353 L 242.71653 588.18896 M 242.71653 508.46455 L 242.71653 396.85038 M 242.71653 391.53542 L 242.71653 333.07086 M 248.03149 465.94487 L 248.03149 487.20471 M 248.03149 588.18896 L 248.03149 604.13384 M 248.03149 646.65353 L 248.03149 673.22833 M 248.03149 742.32282 L 248.03149 768.89762 M 253.34645 742.32282 L 253.34645 731.69290 M 253.34645 465.94487 L 253.34645 449.99999 M 253.34645 380.90550 L 253.34645 364.96062 M 258.66141 311.81102 L 258.66141 428.74015 M 258.66141 449.99999 L 258.66141 465.94487 M 258.66141 582.87400 L 258.66141 614.76376 M 258.66141 662.59841 L 258.66141 705.11809 M 258.66141 742.32282 L 258.66141 768.89762 M 263.97637 763.58266 L 263.97637 731.69290 M 263.97637 673.22833 L 263.97637 662.59841 M 263.97637 614.76376 L 263.97637 582.87400 M 269.29133 503.14959 L 269.29133 556.29920 M 274.60629 721.06297 L 274.60629 715.74801 M 274.60629 311.81102 L 274.60629 301.18110 M 279.92125 301.18110 L 279.92125 311.81102 M 279.92125 412.79527 L 279.92125 497.83463 M 279.92125 556.29920 L 279.92125 582.87400 M 279.92125 662.59841 L 279.92125 705.11809 M 290.55117 418.11023 L 290.55117 428.74015 M 290.55117 582.87400 L 290.55117 614.76376 M 290.55117 662.59841 L 290.55117 673.22833 M 290.55117 689.17321 L 290.55117 721.06297 M 295.86613 731.69290 L 295.86613 721.06297 M 295.86613 689.17321 L 295.86613 444.68503 M 295.86613 412.79527 L 295.86613 295.86613 M 301.18110 295.86613 L 301.18110 349.01574 M 306.49606 790.15746 L 306.49606 774.21258 M 306.49606 731.69290 L 306.49606 721.06297 M 306.49606 614.76376 L 306.49606 503.14959 M 306.49606 423.42519 L 306.49606 269.29133 M 311.81102 423.42519 L 311.81102 444.68503 M 317.12598 731.69290 L 317.12598 726.37793 M 317.12598 439.37007 L 317.12598 269.29133 M 322.44094 333.07086 L 322.44094 364.96062 M 322.44094 396.85038 L 322.44094 402.16534 M 322.44094 423.42519 L 322.44094 503.14959 M 322.44094 726.37793 L 322.44094 731.69290 M 327.75590 689.17321 L 327.75590 614.76376 M 327.75590 455.31495 L 327.75590 423.42519 M 327.75590 333.07086 L 327.75590 311.81102 M 333.07086 311.81102 L 333.07086 333.07086 M 333.07086 540.35432 L 333.07086 593.50392 M 333.07086 768.89762 L 333.07086 795.47242 M 338.38582 731.69290 L 338.38582 726.37793 M 338.38582 412.79527 L 338.38582 402.16534 M 338.38582 322.44094 L 338.38582 311.81102 M 343.70078 295.86613 L 343.70078 364.96062 M 343.70078 428.74015 L 343.70078 449.99999 M 349.01574 689.17321 L 349.01574 651.96849 M 349.01574 540.35432 L 349.01574 503.14959 M 354.33070 279.92125 L 354.33070 295.86613 M 354.33070 354.33070 L 354.33070 364.96062 M 354.33070 455.31495 L 354.33070 503.14959 M 354.33070 566.92912 L 354.33070 614.76376 M 354.33070 726.37793 L 354.33070 731.69290 M 359.64566 646.65353 L 359.64566 636.02361 M 359.64566 529.72440 L 359.64566 455.31495 M 359.64566 428.74015 L 359.64566 263.97637 M 370.27558 795.47242 L 370.27558 689.17321 M 370.27558 625.39369 L 370.27558 604.13384 M 370.27558 566.92912 L 370.27558 455.31495 M 375.59054 455.31495 L 375.59054 460.62991 M 375.59054 598.81888 L 375.59054 604.13384 M 380.90550 779.52754 L 380.90550 768.89762 M 380.90550 737.00786 L 380.90550 689.17321 M 380.90550 460.62991 L 380.90550 455.31495 M 386.22046 737.00786 L 386.22046 795.47242 M 391.53542 636.02361 L 391.53542 625.39369 M 391.53542 519.09448 L 391.53542 471.25983 M 396.85038 651.96849 L 396.85038 689.17321 M 396.85038 737.00786 L 396.85038 763.58266 M 402.16534 428.74015 L 402.16534 263.97637 M 407.48030 279.92125 L 407.48030 301.18110 M 407.48030 636.02361 L 407.48030 689.17321 M 407.48030 737.00786 L 407.48030 795.47242 M 412.79527 689.17321 L 412.79527 604.13384 M 412.79527 519.09448 L 412.79527 465.94487 M 412.79527 301.18110 L 412.79527 290.55117 M 418.11023 274.60629 L 418.11023 481.88975 M 418.11023 519.09448 L 418.11023 604.13384 M 418.11023 636.02361 L 418.11023 689.17321 M 434.05511 651.96849 L 434.05511 582.87400 M 434.05511 412.79527 L 434.05511 306.49606 M 439.37007 274.60629 L 439.37007 359.64566 M 439.37007 604.13384 L 439.37007 758.26770 M 444.68503 604.13384 L 444.68503 519.09448 M 449.99999 274.60629 L 449.99999 317.12598 M 449.99999 349.01574 L 449.99999 359.64566 M 455.31495 317.12598 L 455.31495 306.49606 M 455.31495 285.23621 L 455.31495 274.60629 M 460.62991 317.12598 L 460.62991 412.79527 M 460.62991 465.94487 L 460.62991 471.25983 M 460.62991 662.59841 L 460.62991 667.91337 M 465.94487 790.15746 L 465.94487 604.13384 M 471.25983 465.94487 L 471.25983 471.25983 M 471.25983 519.09448 L 471.25983 593.50392 M 481.88975 285.23621 L 481.88975 317.12598 M 481.88975 364.96062 L 481.88975 412.79527 M 481.88975 481.88975 L 481.88975 519.09448 M 481.88975 604.13384 L 481.88975 678.54329 M 487.20471 774.21258 L 487.20471 742.32282 M 487.20471 582.87400 L 487.20471 471.25983 M 487.20471 317.12598 L 487.20471 295.86613 M 492.51967 471.25983 L 492.51967 577.55904 M 497.83463 768.89762 L 497.83463 705.11809 M 497.83463 582.87400 L 497.83463 572.24408 M 497.83463 317.12598 L 497.83463 295.86613 M 503.14959 364.96062 L 503.14959 380.90550 M 503.14959 471.25983 L 503.14959 582.87400 M 508.46455 763.58266 L 508.46455 705.11809 M 508.46455 678.54329 L 508.46455 667.91337 M 508.46455 636.02361 L 508.46455 593.50392 M 513.77952 545.66928 L 513.77952 566.92912 M 513.77952 705.11809 L 513.77952 742.32282 M 519.09448 317.12598 L 519.09448 311.81102 M 524.40944 311.81102 L 524.40944 317.12598 M 524.40944 471.25983 L 524.40944 513.77952 M 524.40944 742.32282 L 524.40944 752.95274 M 529.72440 705.11809 L 529.72440 636.02361 M 529.72440 513.77952 L 529.72440 503.14959 M 535.03936 317.12598 L 535.03936 380.90550 M 535.03936 497.83463 L 535.03936 513.77952 M 535.03936 588.18896 L 535.03936 636.02361 M 540.35432 503.14959 L 540.35432 497.83463 M 545.66928 354.33070 L 545.66928 412.79527 M 545.66928 497.83463 L 545.66928 503.14959 M 545.66928 593.50392 L 545.66928 630.70865 M 550.98424 742.32282 L 550.98424 705.11809 M 550.98424 630.70865 L 550.98424 593.50392 M 550.98424 354.33070 L 550.98424 333.07086 M 561.61416 646.65353 L 561.61416 641.33857 M 561.61416 636.02361 L 561.61416 625.39369 M 566.92912 391.53542 L 566.92912 412.79527 M 566.92912 513.77952 L 566.92912 545.66928 M 566.92912 598.81888 L 566.92912 620.07872 M 566.92912 705.11809 L 566.92912 721.06297 M 572.24408 380.90550 L 572.24408 354.33070 M 577.55904 476.57479 L 577.55904 481.88975 M 577.55904 588.18896 L 577.55904 636.02361 M 588.18896 476.57479 L 588.18896 481.88975 M 588.18896 678.54329 L 588.18896 705.11809 M 593.50392 641.33857 L 593.50392 636.02361 M 593.50392 391.53542 L 593.50392 380.90550 M 598.81888 391.53542 L 598.81888 412.79527 M 598.81888 492.51967 L 598.81888 497.83463 M 598.81888 524.40944 L 598.81888 566.92912 M 604.13384 582.87400 L 604.13384 566.92912 M 609.44880 412.79527 L 609.44880 497.83463 M 609.44880 524.40944 L 609.44880 540.35432 M 609.44880 641.33857 L 609.44880 678.54329 M 614.76376 641.33857 L 614.76376 588.18896 M 614.76376 540.35432 L 614.76376 513.77952 M 614.76376 503.14959 L 614.76376 428.74015 M 620.07872 434.05511 L 620.07872 487.20471 M 620.07872 588.18896 L 620.07872 609.44880 M 625.39369 625.39369 L 625.39369 609.44880 M 625.39369 588.18896 L 625.39369 540.35432 M 630.70865 476.57479 L 630.70865 492.51967 M 630.70865 503.14959 L 630.70865 513.77952 M 630.70865 540.35432 L 630.70865 556.29920 M 630.70865 588.18896 L 630.70865 609.44880 M 636.02361 588.18896 L 636.02361 513.77952 M 636.02361 508.46455 L 636.02361 492.51967 M 359.64566 263.26771 L 402.16534 263.26771 M 306.49606 268.58267 L 317.12598 268.58267 M 418.11023 273.89763 L 439.37007 273.89763 M 449.99999 273.89763 L 455.31495 273.89763 M 354.33070 279.21259 L 359.64566 279.21259 M 402.16534 279.21259 L 407.48030 279.21259 M 439.37007 284.52755 L 449.99999 284.52755 M 455.31495 284.52755 L 481.88975 284.52755 M 412.79527 289.84251 L 418.11023 289.84251 M 295.86613 295.15747 L 301.18110 295.15747 M 343.70078 295.15747 L 354.33070 295.15747 M 487.20471 295.15747 L 497.83463 295.15747 M 274.60629 300.47243 L 279.92125 300.47243 M 407.48030 300.47243 L 412.79527 300.47243 M 258.66141 311.10235 L 274.60629 311.10235 M 279.92125 311.10235 L 295.86613 311.10235 M 327.75590 311.10235 L 333.07086 311.10235 M 338.38582 311.10235 L 343.70078 311.10235 M 519.09448 311.10235 L 524.40944 311.10235 M 481.88975 316.41732 L 487.20471 316.41732 M 497.83463 316.41732 L 519.09448 316.41732 M 524.40944 316.41732 L 535.03936 316.41732 M 338.38582 323.14960 L 343.70078 323.14960 M 205.51181 332.36220 L 242.71653 332.36220 M 322.44094 332.36220 L 327.75590 332.36220 M 333.07086 332.36220 L 343.70078 332.36220 M 535.03936 332.36220 L 550.98424 332.36220 M 200.19685 337.67716 L 205.51181 337.67716 M 301.18110 348.30708 L 306.49606 348.30708 M 343.70078 349.72440 L 359.64566 349.72440 M 354.33070 353.62204 L 359.64566 353.62204 M 550.98424 353.62204 L 572.24408 353.62204 M 317.12598 358.93700 L 322.44094 358.93700 M 200.19685 360.35432 L 205.51181 360.35432 M 157.67716 364.25196 L 194.88189 364.25196 M 253.34645 364.25196 L 258.66141 364.25196 M 343.70078 364.25196 L 354.33070 364.25196 M 503.14959 365.66928 L 535.03936 365.66928 M 194.88189 369.56692 L 200.19685 369.56692 M 503.14959 369.56692 L 535.03936 369.56692 M 572.24408 380.19684 L 593.50392 380.19684 M 253.34645 381.61416 L 258.66141 381.61416 M 317.12598 386.92912 L 359.64566 386.92912 M 200.19685 390.82676 L 205.51181 390.82676 M 593.50392 390.82676 L 598.81888 390.82676 M 157.67716 392.24408 L 178.93700 392.24408 M 221.45669 392.24408 L 242.71653 392.24408 M 141.73228 396.14172 L 157.67716 396.14172 M 242.71653 396.14172 L 258.66141 396.14172 M 317.12598 396.14172 L 322.44094 396.14172 M 168.30708 401.45668 L 178.93700 401.45668 M 221.45669 401.45668 L 242.71653 401.45668 M 322.44094 401.45668 L 338.38582 401.45668 M 545.66928 408.18897 L 566.92912 408.18897 M 545.66928 412.08660 L 566.92912 412.08660 M 598.81888 412.08660 L 609.44880 412.08660 M 317.12598 413.50393 L 338.38582 413.50393 M 131.10236 417.40156 L 141.73228 417.40156 M 290.55117 418.81889 L 306.49606 418.81889 M 322.44094 422.71653 L 327.75590 422.71653 M 258.66141 424.13385 L 279.92125 424.13385 M 306.49606 424.13385 L 311.81102 424.13385 M 258.66141 428.03149 L 279.92125 428.03149 M 290.55117 428.03149 L 311.81102 428.03149 M 343.70078 428.03149 L 359.64566 428.03149 M 609.44880 428.03149 L 614.76376 428.03149 M 614.76376 433.34645 L 620.07872 433.34645 M 120.47244 438.66141 L 131.10236 438.66141 M 311.81102 440.07873 L 317.12598 440.07873 M 157.67716 443.97637 L 168.30708 443.97637 M 311.81102 443.97637 L 322.44094 443.97637 M 343.70078 450.70865 L 418.11023 450.70865 M 327.75590 454.60629 L 354.33070 454.60629 M 359.64566 454.60629 L 370.27558 454.60629 M 375.59054 454.60629 L 380.90550 454.60629 M 120.47244 456.02361 L 157.67716 456.02361 M 375.59054 461.33857 L 380.90550 461.33857 M 412.79527 465.23621 L 418.11023 465.23621 M 178.93700 466.65353 L 216.14173 466.65353 M 471.25983 466.65353 L 609.44880 466.65353 M 152.36220 470.55117 L 157.67716 470.55117 M 178.93700 470.55117 L 194.88189 470.55117 M 391.53542 470.55117 L 412.79527 470.55117 M 471.25983 470.55117 L 492.51967 470.55117 M 503.14959 470.55117 L 524.40944 470.55117 M 109.84252 475.86613 L 152.36220 475.86613 M 194.88189 475.86613 L 205.51181 475.86613 M 492.51967 475.86613 L 503.14959 475.86613 M 577.55904 475.86613 L 588.18896 475.86613 M 620.07872 475.86613 L 630.70865 475.86613 M 242.71653 482.59841 L 248.03149 482.59841 M 577.55904 482.59841 L 588.18896 482.59841 M 248.03149 487.91337 L 279.92125 487.91337 M 598.81888 491.81101 L 609.44880 491.81101 M 630.70865 491.81101 L 636.02361 491.81101 M 205.51181 497.12597 L 216.14173 497.12597 M 370.27558 497.12597 L 391.53542 497.12597 M 535.03936 497.12597 L 540.35432 497.12597 M 545.66928 497.12597 L 598.81888 497.12597 M 279.92125 498.54329 L 295.86613 498.54329 M 269.29133 502.44093 L 295.86613 502.44093 M 529.72440 502.44093 L 535.03936 502.44093 M 540.35432 502.44093 L 545.66928 502.44093 M 349.01574 503.85826 L 354.33070 503.85826 M 242.71653 507.75589 L 269.29133 507.75589 M 630.70865 509.17322 L 636.02361 509.17322 M 524.40944 513.07085 L 529.72440 513.07085 M 630.70865 513.07085 L 636.02361 513.07085 M 104.52756 523.70077 L 109.84252 523.70077 M 349.01574 529.01574 L 359.64566 529.01574 M 566.92912 541.06298 L 598.81888 541.06298 M 566.92912 544.96062 L 598.81888 544.96062 M 104.52756 567.63778 L 131.10236 567.63778 M 333.07086 567.63778 L 354.33070 567.63778 M 333.07086 571.53542 L 354.33070 571.53542 M 115.15748 582.16534 L 131.10236 582.16534 M 535.03936 588.89762 L 577.55904 588.89762 M 630.70865 588.89762 L 636.02361 588.89762 M 545.66928 592.79526 L 550.98424 592.79526 M 566.92912 598.11022 L 577.55904 598.11022 M 354.33070 599.52754 L 375.59054 599.52754 M 370.27558 603.42518 L 375.59054 603.42518 M 115.15748 610.15747 L 120.47244 610.15747 M 625.39369 610.15747 L 630.70865 610.15747 M 327.75590 615.47243 L 354.33070 615.47243 M 566.92912 620.78739 L 577.55904 620.78739 M 561.61416 624.68502 L 577.55904 624.68502 M 120.47244 626.10235 L 131.10236 626.10235 M 370.27558 626.10235 L 391.53542 626.10235 M 614.76376 626.10235 L 625.39369 626.10235 M 545.66928 631.41731 L 550.98424 631.41731 M 359.64566 635.31495 L 391.53542 635.31495 M 535.03936 635.31495 L 561.61416 635.31495 M 529.72440 642.04723 L 561.61416 642.04723 M 609.44880 642.04723 L 614.76376 642.04723 M 529.72440 645.94487 L 561.61416 645.94487 M 359.64566 647.36219 L 407.48030 647.36219 M 349.01574 651.25983 L 396.85038 651.25983 M 131.10236 652.67715 L 136.41732 652.67715 M 136.41732 657.99211 L 141.73228 657.99211 M 248.03149 657.99211 L 295.86613 657.99211 M 258.66141 661.88975 L 263.97637 661.88975 M 279.92125 661.88975 L 290.55117 661.88975 M 141.73228 668.62203 L 147.04724 668.62203 M 248.03149 672.51967 L 258.66141 672.51967 M 263.97637 672.51967 L 279.92125 672.51967 M 290.55117 672.51967 L 295.86613 672.51967 M 147.04724 679.25195 L 152.36220 679.25195 M 184.25196 679.25195 L 258.66141 679.25195 M 588.18896 679.25195 L 609.44880 679.25195 M 232.08661 683.14959 L 258.66141 683.14959 M 152.36220 684.56691 L 168.30708 684.56691 M 279.92125 684.56691 L 295.86613 684.56691 M 290.55117 688.46455 L 295.86613 688.46455 M 327.75590 688.46455 L 349.01574 688.46455 M 396.85038 688.46455 L 407.48030 688.46455 M 184.25196 693.77951 L 216.14173 693.77951 M 168.30708 695.19683 L 184.25196 695.19683 M 232.08661 700.51179 L 258.66141 700.51179 M 178.93700 704.40943 L 184.25196 704.40943 M 216.14173 704.40943 L 258.66141 704.40943 M 279.92125 704.40943 L 290.55117 704.40943 M 566.92912 705.82675 L 588.18896 705.82675 M 508.46455 711.14171 L 513.77952 711.14171 M 178.93700 716.45668 L 274.60629 716.45668 M 290.55117 716.45668 L 370.27558 716.45668 M 216.14173 720.35431 L 274.60629 720.35431 M 290.55117 720.35431 L 306.49606 720.35431 M 508.46455 720.35431 L 513.77952 720.35431 M 550.98424 721.77164 L 566.92912 721.77164 M 317.12598 725.66927 L 322.44094 725.66927 M 338.38582 725.66927 L 354.33070 725.66927 M 200.19685 730.98423 L 216.14173 730.98423 M 306.49606 730.98423 L 317.12598 730.98423 M 322.44094 730.98423 L 338.38582 730.98423 M 354.33070 730.98423 L 370.27558 730.98423 M 370.27558 732.40156 L 380.90550 732.40156 M 370.27558 736.29919 L 380.90550 736.29919 M 200.19685 737.71652 L 226.77165 737.71652 M 232.08661 737.71652 L 253.34645 737.71652 M 248.03149 741.61416 L 253.34645 741.61416 M 258.66141 743.03148 L 263.97637 743.03148 M 524.40944 743.03148 L 550.98424 743.03148 M 226.77165 753.66140 L 232.08661 753.66140 M 508.46455 753.66140 L 524.40944 753.66140 M 263.97637 764.29132 L 370.27558 764.29132 M 497.83463 764.29132 L 508.46455 764.29132 M 333.07086 768.18896 L 370.27558 768.18896 M 248.03149 769.60628 L 258.66141 769.60628 M 370.27558 769.60628 L 380.90550 769.60628 M 487.20471 769.60628 L 497.83463 769.60628 M 306.49606 773.50392 L 333.07086 773.50392 M 465.94487 774.92124 L 487.20471 774.92124 M 380.90550 780.23620 L 386.22046 780.23620 M 306.49606 790.86612 L 333.07086 790.86612 M 407.48030 790.86612 L 465.94487 790.86612 M 333.07086 796.18108 L 370.27558 796.18108 M 386.22046 796.18108 L 407.48030 796.18108 M 103.81890 524.40944 L 103.81890 566.92912 M 109.13386 476.57479 L 109.13386 524.40944 M 114.44882 582.87400 L 114.44882 609.44880 M 119.76378 439.37007 L 119.76378 455.31495 M 119.76378 609.44880 L 119.76378 625.39369 M 130.39370 418.11023 L 130.39370 439.37007 M 130.39370 566.92912 L 130.39370 582.87400 M 130.39370 625.39369 L 130.39370 651.96849 M 135.70866 651.96849 L 135.70866 657.28345 M 141.02362 396.85038 L 141.02362 418.11023 M 141.02362 657.28345 L 141.02362 667.91337 M 146.33858 667.91337 L 146.33858 678.54329 M 151.65354 471.25983 L 151.65354 476.57479 M 151.65354 678.54329 L 151.65354 683.85825 M 156.96850 364.96062 L 156.96850 391.53542 M 156.96850 455.31495 L 156.96850 471.25983 M 158.38582 396.85038 L 158.38582 444.68503 M 167.59842 402.16534 L 167.59842 444.68503 M 167.59842 683.85825 L 167.59842 694.48817 M 178.22834 391.53542 L 178.22834 402.16534 M 178.22834 705.11809 L 178.22834 715.74801 M 179.64566 465.94487 L 179.64566 471.25983 M 183.54330 694.48817 L 183.54330 705.11809 M 184.96063 678.54329 L 184.96063 694.48817 M 195.59055 364.96062 L 195.59055 370.27558 M 195.59055 471.25983 L 195.59055 476.57479 M 199.48818 338.38582 L 199.48818 359.64566 M 199.48818 731.69290 L 199.48818 737.00786 M 200.90551 370.27558 L 200.90551 391.53542 M 204.80314 333.07086 L 204.80314 338.38582 M 204.80314 359.64566 L 204.80314 391.53542 M 206.22047 476.57479 L 206.22047 497.83463 M 215.43307 465.94487 L 215.43307 497.83463 M 215.43307 721.06297 L 215.43307 731.69290 M 216.85039 694.48817 L 216.85039 705.11809 M 222.16535 391.53542 L 222.16535 402.16534 M 226.06299 737.00786 L 226.06299 752.95274 M 231.37795 683.85825 L 231.37795 699.80313 M 232.79527 737.00786 L 232.79527 752.95274 M 242.00787 396.85038 L 242.00787 402.16534 M 243.42519 333.07086 L 243.42519 391.53542 M 243.42519 481.88975 L 243.42519 508.46455 M 247.32283 481.88975 L 247.32283 487.20471 M 247.32283 742.32282 L 247.32283 768.89762 M 248.74015 657.28345 L 248.74015 673.22833 M 252.63779 364.96062 L 252.63779 380.90550 M 252.63779 737.00786 L 252.63779 742.32282 M 257.95275 311.81102 L 257.95275 364.96062 M 257.95275 380.90550 L 257.95275 396.85038 M 257.95275 662.59841 L 257.95275 673.22833 M 257.95275 678.54329 L 257.95275 683.85825 M 257.95275 699.80313 L 257.95275 705.11809 M 259.37007 423.42519 L 259.37007 428.74015 M 259.37007 742.32282 L 259.37007 768.89762 M 263.26771 742.32282 L 263.26771 763.58266 M 264.68503 662.59841 L 264.68503 673.22833 M 268.58267 503.14959 L 268.58267 508.46455 M 273.89763 301.18110 L 273.89763 311.81102 M 273.89763 715.74801 L 273.89763 721.06297 M 279.21259 423.42519 L 279.21259 428.74015 M 279.21259 487.20471 L 279.21259 497.83463 M 279.21259 662.59841 L 279.21259 673.22833 M 280.62991 301.18110 L 280.62991 311.81102 M 280.62991 683.85825 L 280.62991 705.11809 M 289.84251 689.17321 L 289.84251 705.11809 M 291.25984 418.11023 L 291.25984 428.74015 M 291.25984 662.59841 L 291.25984 673.22833 M 291.25984 715.74801 L 291.25984 721.06297 M 295.15747 295.86613 L 295.15747 311.81102 M 295.15747 497.83463 L 295.15747 503.14959 M 295.15747 657.28345 L 295.15747 673.22833 M 295.15747 683.85825 L 295.15747 689.17321 M 301.88976 295.86613 L 301.88976 349.01574 M 305.78739 269.29133 L 305.78739 349.01574 M 305.78739 418.11023 L 305.78739 423.42519 M 305.78739 774.21258 L 305.78739 790.15746 M 307.20472 721.06297 L 307.20472 731.69290 M 311.10235 423.42519 L 311.10235 428.74015 M 312.51968 439.37007 L 312.51968 444.68503 M 316.41732 726.37793 L 316.41732 731.69290 M 317.83464 269.29133 L 317.83464 359.64566 M 317.83464 386.22046 L 317.83464 396.85038 M 317.83464 412.79527 L 317.83464 439.37007 M 321.73228 333.07086 L 321.73228 359.64566 M 321.73228 423.42519 L 321.73228 444.68503 M 323.14960 396.85038 L 323.14960 402.16534 M 323.14960 726.37793 L 323.14960 731.69290 M 327.04724 311.81102 L 327.04724 333.07086 M 328.46456 423.42519 L 328.46456 455.31495 M 328.46456 614.76376 L 328.46456 689.17321 M 332.36220 768.89762 L 332.36220 774.21258 M 332.36220 790.15746 L 332.36220 795.47242 M 333.77952 311.81102 L 333.77952 333.07086 M 333.77952 566.92912 L 333.77952 572.24408 M 337.67716 311.81102 L 337.67716 322.44094 M 337.67716 726.37793 L 337.67716 731.69290 M 339.09448 402.16534 L 339.09448 412.79527 M 342.99212 295.86613 L 342.99212 311.81102 M 342.99212 322.44094 L 342.99212 333.07086 M 342.99212 428.74015 L 342.99212 449.99999 M 344.40944 349.01574 L 344.40944 364.96062 M 348.30708 651.96849 L 348.30708 689.17321 M 349.72440 503.14959 L 349.72440 529.72440 M 353.62204 279.92125 L 353.62204 295.86613 M 353.62204 354.33070 L 353.62204 364.96062 M 353.62204 566.92912 L 353.62204 572.24408 M 355.03936 455.31495 L 355.03936 503.14959 M 355.03936 598.81888 L 355.03936 614.76376 M 355.03936 726.37793 L 355.03936 731.69290 M 358.93700 263.97637 L 358.93700 279.92125 M 358.93700 349.01574 L 358.93700 354.33070 M 358.93700 386.22046 L 358.93700 428.74015 M 358.93700 455.31495 L 358.93700 529.72440 M 358.93700 636.02361 L 358.93700 646.65353 M 369.56692 604.13384 L 369.56692 625.39369 M 369.56692 715.74801 L 369.56692 731.69290 M 369.56692 763.58266 L 369.56692 768.89762 M 370.98424 455.31495 L 370.98424 497.83463 M 370.98424 731.69290 L 370.98424 737.00786 M 370.98424 768.89762 L 370.98424 795.47242 M 374.88188 455.31495 L 374.88188 460.62991 M 374.88188 598.81888 L 374.88188 604.13384 M 380.19684 731.69290 L 380.19684 737.00786 M 380.19684 768.89762 L 380.19684 779.52754 M 381.61416 455.31495 L 381.61416 460.62991 M 385.51180 779.52754 L 385.51180 795.47242 M 390.82676 471.25983 L 390.82676 497.83463 M 390.82676 625.39369 L 390.82676 636.02361 M 397.55905 651.96849 L 397.55905 689.17321 M 402.87401 263.97637 L 402.87401 279.92125 M 406.77164 646.65353 L 406.77164 689.17321 M 408.18897 279.92125 L 408.18897 301.18110 M 408.18897 790.15746 L 408.18897 795.47242 M 412.08660 290.55117 L 412.08660 301.18110 M 412.08660 465.94487 L 412.08660 471.25983 M 417.40156 274.60629 L 417.40156 290.55117 M 417.40156 449.99999 L 417.40156 465.94487 M 440.07873 274.60629 L 440.07873 285.23621 M 449.29133 274.60629 L 449.29133 285.23621 M 456.02361 274.60629 L 456.02361 285.23621 M 466.65353 774.21258 L 466.65353 790.15746 M 471.96849 465.94487 L 471.96849 471.25983 M 482.59841 285.23621 L 482.59841 317.12598 M 486.49605 295.86613 L 486.49605 317.12598 M 487.91337 768.89762 L 487.91337 774.21258 M 493.22833 471.25983 L 493.22833 476.57479 M 498.54329 295.86613 L 498.54329 317.12598 M 498.54329 763.58266 L 498.54329 768.89762 M 502.44093 471.25983 L 502.44093 476.57479 M 503.85826 364.96062 L 503.85826 370.27558 M 509.17322 710.43305 L 509.17322 721.06297 M 509.17322 752.95274 L 509.17322 763.58266 M 513.07085 710.43305 L 513.07085 721.06297 M 518.38581 311.81102 L 518.38581 317.12598 M 525.11810 311.81102 L 525.11810 317.12598 M 525.11810 471.25983 L 525.11810 513.77952 M 525.11810 742.32282 L 525.11810 752.95274 M 529.01574 503.14959 L 529.01574 513.77952 M 530.43306 641.33857 L 530.43306 646.65353 M 534.33070 364.96062 L 534.33070 370.27558 M 534.33070 497.83463 L 534.33070 503.14959 M 535.74802 317.12598 L 535.74802 333.07086 M 535.74802 588.18896 L 535.74802 636.02361 M 541.06298 497.83463 L 541.06298 503.14959 M 544.96062 497.83463 L 544.96062 503.14959 M 544.96062 593.50392 L 544.96062 630.70865 M 546.37794 407.48030 L 546.37794 412.79527 M 551.69290 333.07086 L 551.69290 354.33070 M 551.69290 593.50392 L 551.69290 630.70865 M 551.69290 721.06297 L 551.69290 742.32282 M 560.90550 625.39369 L 560.90550 636.02361 M 560.90550 641.33857 L 560.90550 646.65353 M 566.22046 407.48030 L 566.22046 412.79527 M 566.22046 598.81888 L 566.22046 620.07872 M 567.63778 540.35432 L 567.63778 545.66928 M 567.63778 705.11809 L 567.63778 721.06297 M 572.95274 354.33070 L 572.95274 380.90550 M 576.85038 476.57479 L 576.85038 481.88975 M 576.85038 588.18896 L 576.85038 598.81888 M 576.85038 620.07872 L 576.85038 625.39369 M 588.89762 476.57479 L 588.89762 481.88975 M 588.89762 678.54329 L 588.89762 705.11809 M 594.21258 380.90550 L 594.21258 391.53542 M 598.11022 492.51967 L 598.11022 497.83463 M 598.11022 540.35432 L 598.11022 545.66928 M 599.52754 391.53542 L 599.52754 412.79527 M 608.74014 465.94487 L 608.74014 492.51967 M 610.15747 412.79527 L 610.15747 428.74015 M 610.15747 641.33857 L 610.15747 678.54329 M 615.47243 428.74015 L 615.47243 434.05511 M 615.47243 625.39369 L 615.47243 641.33857 M 620.78739 434.05511 L 620.78739 476.57479 M 626.10235 609.44880 L 626.10235 625.39369 M 631.41731 476.57479 L 631.41731 492.51967 M 631.41731 508.46455 L 631.41731 513.77952 M 631.41731 588.18896 L 631.41731 609.44880 M 636.73227 492.51967 L 636.73227 508.46455 M 636.73227 513.77952 L 636.73227 588.18896" fill="none" stroke="black" stroke-width="0.03cm" />
   </g>
</svg>