<?xml version="1.0" ?>
<svg baseProfile="full" height="368px" version="1.1" viewBox="-0.7217672424316408 1.4003366394042966 22.399192443847657 13.701829162597656" width="600px" xmlns="http://www.w3.org/2000/svg" xmlns:ev="http://www.w3.org/2001/xml-events" xmlns:xlink="http://www.w3.org/1999/xlink">
	<defs/>
	<path d="M 5.4486236572265625,8.422286987304688 L 5.4486236572265625,8.422286987304688 L 5.3340606689453125,8.289276123046875 L 5.2178192138671875,8.157867431640625 L 4.964080810546875,8.06640625 L 4.7019500732421875,7.974945068359375 L 4.438140869140625,7.889862060546875 L 4.1743316650390625,7.8031768798828125 L 3.9105224609375,7.7180938720703125 L 3.6467132568359375,7.59149169921875 L 3.37451171875,7.4584808349609375 L 3.031890869140625,7.3797760009765625 L 2.655731201171875,7.5335235595703125 L 2.2845916748046875,7.7144317626953125 L 1.9117889404296875,7.919281005859375 L 1.8458709716796875,8.1624755859375 L 2.027557373046875,8.480728149414062 L 2.2092437744140625,8.797393798828125 L 2.39093017578125,9.114059448242188" fill="none" stroke="#000000" stroke-width="0.01865045166015625"/>
	<path d="M 5.4486236572265625,2.5499267578125 L 5.4486236572265625,2.5499267578125 L 5.7862548828125,2.888946533203125 L 6.1423492431640625,3.2663116455078125 L 6.516876220703125,3.6436767578125 L 6.8947601318359375,4.0178375244140625 L 7.27264404296875,4.3936004638671875 L 7.6505279541015625,4.76776123046875 L 8.028411865234375,5.1419219970703125 L 8.500213623046875,5.337188720703125 L 8.975372314453125,5.5117034912109375 L 9.450531005859375,5.6878204345703125 L 9.925689697265625,5.8639373779296875 L 10.40252685546875,6.0304718017578125 L 10.886062622070312,6.1794281005859375 L 11.369598388671875,6.329986572265625 L 11.869598388671875,6.3815155029296875 L 12.369598388671875,6.4298553466796875 L 12.869598388671875,6.4797821044921875 L 13.369598388671875,6.5297088623046875 L 13.869598388671875,6.5796356201171875 L 14.369598388671875,6.6295623779296875 L 14.869598388671875,6.6539459228515625 L 15.369598388671875,6.6056060791015625 L 15.869598388671875,6.558868408203125 L 16.369598388671875,6.5089263916015625 L 16.869598388671875,6.458984375 L 17.369598388671875,6.4090423583984375 L 17.869598388671875,6.3527069091796875 L 18.369598388671875,6.189361572265625 L 18.84307861328125,6.220123291015625 L 18.892288208007812,6.30999755859375 L 18.969985961914062,6.49090576171875 L 18.925857543945312,6.3978424072265625 L 18.849868774414062,5.9757537841796875 L 18.743698120117188,5.925811767578125 L 18.44970703125,5.720947265625 L 18.555923461914062,5.7485198974609375 L 18.754379272460938,5.804840087890625 M 18.990310668945312,5.6742706298828125 L 18.990310668945312,5.6742706298828125 L 19.039520263671875,6.17425537109375 L 19.088729858398438,6.6742401123046875 L 19.071441650390625,7.174224853515625 L 19.052474975585938,7.6742095947265625 L 19.031829833984375,8.1741943359375 L 18.8619384765625,8.572311401367188 L 18.911148071289062,8.484024047851562 L 19.052581787109375,8.261581420898438 L 18.993362426757812,8.179702758789062 L 18.75469970703125,8.011566162109375 L 18.516036987304688,7.7955169677734375 L 18.307571411132812,7.37982177734375 L 18.381927490234375,6.87982177734375 L 18.773223876953125,6.515228271484375 L 19.243331909179688,6.303955078125 M 19.012664794921875,6.827911376953125 L 19.012664794921875,6.827911376953125 L 18.576126098632812,7.14776611328125 L 18.707504272460938,7.5123443603515625 L 19.147445678710938,7.465606689453125 M 18.954742431640625,10.576904296875 L 18.954742431640625,10.576904296875 L 19.35107421875,10.952667236328125 L 19.415359497070312,11.452651977539062 L 19.44610595703125,11.95263671875 L 19.344970703125,12.452621459960938 L 19.245513916015625,12.952606201171875 L 19.157791137695312,13.452590942382812 L 19.20867919921875,13.95257568359375 M 19.084091186523438,13.2520751953125 L 19.084091186523438,13.2520751953125 L 18.64923095703125,12.943374633789062 L 18.470947265625,12.443374633789062 L 18.54864501953125,11.943374633789062 L 18.953369140625,11.634674072265625 L 19.363113403320312,11.324386596679688 L 19.803054809570312,11.121109008789062 M 19.182159423828125,11.875076293945312 L 19.182159423828125,11.875076293945312 L 18.742263793945312,12.202911376953125 L 18.784759521484375,12.702896118164062 L 19.254867553710938,12.883804321289062 M 19.204025268554688,12.761978149414062 L 19.204025268554688,12.761978149414062 L 18.921768188476562,12.322311401367188 L 18.634475708007812,11.882644653320312 L 18.60040283203125,11.382644653320312 L 18.676422119140625,10.882644653320312 L 18.615524291992188,10.382644653320312 L 18.438919067382812,9.893478393554688 L 18.139892578125,9.476181030273438 L 18.078994750976562,9.395889282226562 L 17.731338500976562,9.039291381835938 L 17.6788330078125,8.947830200195312 L 17.347946166992188,8.540115356445312 L 16.84796142578125,8.448654174804688 L 16.957534790039062,8.471435546875 L 17.286788940429688,8.476638793945312 L 17.33599853515625,8.385177612304688 L 17.445571899414062,8.196273803710938" fill="none" stroke="#000000" stroke-width="0.01865045166015625"/>
	<path d="M 1.615875244140625,11.598892211914062 L 1.615875244140625,11.598892211914062 L 1.504669189453125,11.279022216796875 L 1.329742431640625,10.823394775390625 L 1.2386627197265625,10.323394775390625 L 1.1526031494140625,9.823394775390625 L 1.2118682861328125,9.323394775390625 L 1.31976318359375,8.823394775390625 L 1.5668487548828125,8.329437255859375 M 1.5529022216796875,8.218795776367188 L 1.5529022216796875,8.218795776367188 L 1.553466796875,7.7519989013671875 L 1.5959625244140625,7.2628326416015625 L 1.6552276611328125,6.815185546875 L 1.7480316162109375,6.7620391845703125 L 1.8458709716796875,6.71209716796875" fill="none" stroke="#000000" stroke-width="0.01865045166015625"/>
</svg>
