<?xml version="1.0" standalone="no"?>
  <!DOCTYPE svg PUBLIC "-//W3C//DTD SVG 1.1//EN" 
    "http://www.w3.org/Graphics/SVG/1.1/DTD/svg11.dtd">
  <svg width="21cm" height="29.7cm"
       xmlns="http://www.w3.org/2000/svg" version="1.1" viewBox="0 0 744.09447 1052.36218">
   <g>
     <path d="M 120.47244 85.03937 L 127.55905 85.03937 M 166.53543 85.03937 L 173.62204 85.03937 M 162.99212 88.58267 L 131.10236 88.58267 M 187.79527 102.75590 L 173.62204 102.75590 M 120.47244 102.75590 L 106.29921 102.75590 M 162.99212 109.84252 L 131.10236 109.84252 M 120.47244 113.38582 L 173.62204 113.38582 M 194.88189 124.01575 L 187.79527 124.01575 M 106.29921 124.01575 L 99.21260 124.01575 M 173.62204 138.18897 L 120.47244 138.18897 M 120.47244 141.73228 L 145.27559 141.73228 M 148.81889 141.73228 L 173.62204 141.73228 M 205.51181 145.27559 L 173.62204 145.27559 M 120.47244 145.27559 L 88.58267 145.27559 M 134.64567 155.90551 L 141.73228 155.90551 M 152.36220 155.90551 L 159.44881 155.90551 M 184.25196 159.44881 L 173.62204 159.44881 M 120.47244 159.44881 L 109.84252 159.44881 M 180.70866 166.53543 L 166.53543 166.53543 M 127.55905 166.53543 L 113.38582 166.53543 M 102.75590 170.07874 L 145.27559 170.07874 M 148.81889 170.07874 L 191.33858 170.07874 M 102.75590 177.16535 L 191.33858 177.16535 M 205.51181 180.70866 L 88.58267 180.70866 M 145.27559 184.25196 L 148.81889 184.25196 M 198.42519 194.88189 L 187.79527 194.88189 M 173.62204 194.88189 L 148.81889 194.88189 M 145.27559 194.88189 L 120.47244 194.88189 M 106.29921 194.88189 L 95.66929 194.88189 M 109.84252 198.42519 L 116.92913 198.42519 M 177.16535 198.42519 L 184.25196 198.42519 M 177.16535 201.96850 L 148.81889 201.96850 M 145.27559 201.96850 L 116.92913 201.96850 M 134.64567 205.51181 L 138.18897 205.51181 M 155.90551 205.51181 L 159.44881 205.51181 M 88.58267 180.70866 L 88.58267 145.27559 M 95.66929 194.88189 L 95.66929 180.70866 M 99.21260 124.01575 L 99.21260 145.27559 M 102.75590 180.70866 L 102.75590 145.27559 M 106.29921 102.75590 L 106.29921 145.27559 M 106.29921 180.70866 L 106.29921 194.88189 M 109.84252 198.42519 L 109.84252 180.70866 M 109.84252 170.07874 L 109.84252 145.27559 M 113.38582 166.53543 L 113.38582 170.07874 M 116.92913 201.96850 L 116.92913 180.70866 M 120.47244 85.03937 L 120.47244 166.53543 M 120.47244 180.70866 L 120.47244 201.96850 M 127.55905 85.03937 L 127.55905 113.38582 M 127.55905 141.73228 L 127.55905 170.07874 M 131.10236 109.84252 L 131.10236 88.58267 M 134.64567 138.18897 L 134.64567 170.07874 M 134.64567 205.51181 L 134.64567 216.14173 M 138.18897 216.14173 L 138.18897 205.51181 M 141.73228 141.73228 L 141.73228 177.16535 M 145.27559 201.96850 L 145.27559 194.88189 M 145.27559 184.25196 L 145.27559 180.70866 M 145.27559 177.16535 L 145.27559 138.18897 M 148.81889 138.18897 L 148.81889 177.16535 M 148.81889 180.70866 L 148.81889 184.25196 M 148.81889 194.88189 L 148.81889 201.96850 M 152.36220 177.16535 L 152.36220 141.73228 M 155.90551 205.51181 L 155.90551 216.14173 M 159.44881 216.14173 L 159.44881 205.51181 M 159.44881 170.07874 L 159.44881 138.18897 M 162.99212 88.58267 L 162.99212 109.84252 M 166.53543 170.07874 L 166.53543 141.73228 M 166.53543 113.38582 L 166.53543 85.03937 M 173.62204 201.96850 L 173.62204 180.70866 M 173.62204 166.53543 L 173.62204 85.03937 M 177.16535 180.70866 L 177.16535 201.96850 M 180.70866 170.07874 L 180.70866 166.53543 M 184.25196 145.27559 L 184.25196 170.07874 M 184.25196 180.70866 L 184.25196 198.42519 M 187.79527 194.88189 L 187.79527 180.70866 M 187.79527 145.27559 L 187.79527 102.75590 M 191.33858 145.27559 L 191.33858 180.70866 M 194.88189 145.27559 L 194.88189 124.01575 M 198.42519 180.70866 L 198.42519 194.88189 M 205.51181 145.27559 L 205.51181 180.70866 M 120.47244 84.68504 L 127.55905 84.68504 M 166.53543 84.68504 L 173.62204 84.68504 M 131.10236 88.22834 L 162.99212 88.22834 M 106.29921 102.40157 L 120.47244 102.40157 M 173.62204 102.40157 L 187.79527 102.40157 M 131.10236 110.19685 L 162.99212 110.19685 M 127.55905 113.03149 L 166.53543 113.03149 M 99.21260 123.66141 L 106.29921 123.66141 M 187.79527 123.66141 L 194.88189 123.66141 M 88.58267 144.92126 L 99.21260 144.92126 M 194.88189 144.92126 L 205.51181 144.92126 M 109.84252 159.80315 L 120.47244 159.80315 M 173.62204 159.80315 L 184.25196 159.80315 M 113.38582 166.18110 L 120.47244 166.18110 M 173.62204 166.18110 L 180.70866 166.18110 M 109.84252 169.72441 L 113.38582 169.72441 M 180.70866 169.72441 L 184.25196 169.72441 M 88.58267 181.06299 L 95.66929 181.06299 M 106.29921 181.06299 L 109.84252 181.06299 M 120.47244 181.06299 L 145.27559 181.06299 M 148.81889 181.06299 L 173.62204 181.06299 M 184.25196 181.06299 L 187.79527 181.06299 M 198.42519 181.06299 L 205.51181 181.06299 M 145.27559 184.60629 L 148.81889 184.60629 M 120.47244 194.52755 L 145.27559 194.52755 M 148.81889 194.52755 L 173.62204 194.52755 M 95.66929 195.23622 L 106.29921 195.23622 M 187.79527 195.23622 L 198.42519 195.23622 M 109.84252 198.77952 L 116.92913 198.77952 M 177.16535 198.77952 L 184.25196 198.77952 M 116.92913 202.32283 L 145.27559 202.32283 M 148.81889 202.32283 L 177.16535 202.32283 M 134.64567 205.15748 L 138.18897 205.15748 M 155.90551 205.15748 L 159.44881 205.15748 M 134.64567 216.49606 L 138.18897 216.49606 M 155.90551 216.49606 L 159.44881 216.49606 M 88.22834 145.27559 L 88.22834 180.70866 M 95.31496 180.70866 L 95.31496 194.88189 M 98.85827 124.01575 L 98.85827 145.27559 M 105.94488 102.75590 L 105.94488 124.01575 M 106.65354 180.70866 L 106.65354 194.88189 M 109.48819 180.70866 L 109.48819 198.42519 M 110.19685 159.44881 L 110.19685 170.07874 M 113.03149 166.53543 L 113.03149 170.07874 M 116.57480 198.42519 L 116.57480 201.96850 M 120.11811 85.03937 L 120.11811 102.75590 M 120.11811 159.44881 L 120.11811 166.53543 M 120.82677 180.70866 L 120.82677 194.88189 M 127.91338 85.03937 L 127.91338 113.38582 M 130.74803 88.58267 L 130.74803 109.84252 M 134.29134 205.51181 L 134.29134 216.14173 M 138.54330 205.51181 L 138.54330 216.14173 M 144.92126 180.70866 L 144.92126 184.25196 M 145.62992 194.88189 L 145.62992 201.96850 M 148.46456 194.88189 L 148.46456 201.96850 M 149.17322 180.70866 L 149.17322 184.25196 M 155.55118 205.51181 L 155.55118 216.14173 M 159.80315 205.51181 L 159.80315 216.14173 M 163.34645 88.58267 L 163.34645 109.84252 M 166.18110 85.03937 L 166.18110 113.38582 M 173.26771 180.70866 L 173.26771 194.88189 M 173.97637 85.03937 L 173.97637 102.75590 M 173.97637 159.44881 L 173.97637 166.53543 M 177.51968 198.42519 L 177.51968 201.96850 M 181.06299 166.53543 L 181.06299 170.07874 M 183.89763 159.44881 L 183.89763 170.07874 M 184.60629 180.70866 L 184.60629 198.42519 M 187.44094 180.70866 L 187.44094 194.88189 M 188.14960 102.75590 L 188.14960 124.01575 M 195.23622 124.01575 L 195.23622 145.27559 M 198.77952 180.70866 L 198.77952 194.88189 M 205.86614 145.27559 L 205.86614 180.70866 M 357.87401 88.58267 L 354.33070 88.58267 M 347.24409 88.58267 L 315.35432 88.58267 M 308.26771 88.58267 L 304.72440 88.58267 M 364.96062 95.66929 L 354.33070 95.66929 M 308.26771 95.66929 L 297.63779 95.66929 M 368.50393 102.75590 L 354.33070 102.75590 M 347.24409 102.75590 L 315.35432 102.75590 M 308.26771 102.75590 L 294.09448 102.75590 M 287.00787 106.29921 L 322.44094 106.29921 M 340.15747 106.29921 L 375.59054 106.29921 M 336.61417 109.84252 L 325.98424 109.84252 M 386.22046 124.01575 L 336.61417 124.01575 M 325.98424 124.01575 L 276.37795 124.01575 M 276.37795 127.55905 L 287.00787 127.55905 M 375.59054 127.55905 L 386.22046 127.55905 M 347.24409 131.10236 L 336.61417 131.10236 M 325.98424 131.10236 L 315.35432 131.10236 M 382.67716 138.18897 L 279.92125 138.18897 M 279.92125 141.73228 L 308.26771 141.73228 M 354.33070 141.73228 L 382.67716 141.73228 M 308.26771 148.81889 L 325.98424 148.81889 M 336.61417 148.81889 L 354.33070 148.81889 M 389.76377 152.36220 L 347.24409 152.36220 M 315.35432 152.36220 L 272.83464 152.36220 M 308.26771 155.90551 L 322.44094 155.90551 M 340.15747 155.90551 L 354.33070 155.90551 M 357.87401 159.44881 L 354.33070 159.44881 M 308.26771 159.44881 L 304.72440 159.44881 M 272.83464 162.99212 L 287.00787 162.99212 M 375.59054 162.99212 L 389.76377 162.99212 M 372.04724 166.53543 L 357.87401 166.53543 M 354.33070 166.53543 L 340.15747 166.53543 M 322.44094 166.53543 L 308.26771 166.53543 M 304.72440 166.53543 L 290.55117 166.53543 M 294.09448 170.07874 L 297.63779 170.07874 M 301.18110 170.07874 L 304.72440 170.07874 M 311.81102 170.07874 L 325.98424 170.07874 M 336.61417 170.07874 L 350.78739 170.07874 M 357.87401 170.07874 L 361.41731 170.07874 M 364.96062 170.07874 L 368.50393 170.07874 M 368.50393 173.62204 L 364.96062 173.62204 M 350.78739 173.62204 L 336.61417 173.62204 M 325.98424 173.62204 L 311.81102 173.62204 M 297.63779 173.62204 L 294.09448 173.62204 M 279.92125 177.16535 L 301.18110 177.16535 M 315.35432 177.16535 L 325.98424 177.16535 M 336.61417 177.16535 L 347.24409 177.16535 M 361.41731 177.16535 L 382.67716 177.16535 M 347.24409 180.70866 L 336.61417 180.70866 M 325.98424 180.70866 L 315.35432 180.70866 M 322.44094 184.25196 L 340.15747 184.25196 M 382.67716 187.79527 L 361.41731 187.79527 M 301.18110 187.79527 L 279.92125 187.79527 M 361.41731 209.05511 L 357.87401 209.05511 M 340.15747 209.05511 L 322.44094 209.05511 M 304.72440 209.05511 L 301.18110 209.05511 M 272.83464 162.99212 L 272.83464 152.36220 M 276.37795 124.01575 L 276.37795 127.55905 M 279.92125 187.79527 L 279.92125 177.16535 M 279.92125 152.36220 L 279.92125 138.18897 M 287.00787 177.16535 L 287.00787 152.36220 M 287.00787 138.18897 L 287.00787 106.29921 M 290.55117 124.01575 L 290.55117 138.18897 M 290.55117 152.36220 L 290.55117 177.16535 M 294.09448 173.62204 L 294.09448 170.07874 M 294.09448 106.29921 L 294.09448 102.75590 M 297.63779 95.66929 L 297.63779 102.75590 M 297.63779 170.07874 L 297.63779 173.62204 M 301.18110 209.05511 L 301.18110 170.07874 M 304.72440 88.58267 L 304.72440 95.66929 M 304.72440 152.36220 L 304.72440 166.53543 M 304.72440 170.07874 L 304.72440 209.05511 M 308.26771 166.53543 L 308.26771 138.18897 M 308.26771 106.29921 L 308.26771 88.58267 M 311.81102 170.07874 L 311.81102 173.62204 M 315.35432 180.70866 L 315.35432 177.16535 M 315.35432 155.90551 L 315.35432 148.81889 M 315.35432 138.18897 L 315.35432 124.01575 M 315.35432 102.75590 L 315.35432 88.58267 M 322.44094 209.05511 L 322.44094 184.25196 M 322.44094 166.53543 L 322.44094 148.81889 M 322.44094 138.18897 L 322.44094 131.10236 M 322.44094 124.01575 L 322.44094 106.29921 M 325.98424 109.84252 L 325.98424 184.25196 M 336.61417 184.25196 L 336.61417 109.84252 M 340.15747 106.29921 L 340.15747 124.01575 M 340.15747 131.10236 L 340.15747 138.18897 M 340.15747 148.81889 L 340.15747 166.53543 M 340.15747 184.25196 L 340.15747 209.05511 M 347.24409 88.58267 L 347.24409 102.75590 M 347.24409 124.01575 L 347.24409 138.18897 M 347.24409 148.81889 L 347.24409 155.90551 M 347.24409 177.16535 L 347.24409 180.70866 M 350.78739 173.62204 L 350.78739 170.07874 M 354.33070 88.58267 L 354.33070 106.29921 M 354.33070 138.18897 L 354.33070 166.53543 M 357.87401 209.05511 L 357.87401 170.07874 M 357.87401 166.53543 L 357.87401 152.36220 M 357.87401 95.66929 L 357.87401 88.58267 M 361.41731 170.07874 L 361.41731 209.05511 M 364.96062 173.62204 L 364.96062 170.07874 M 364.96062 102.75590 L 364.96062 95.66929 M 368.50393 102.75590 L 368.50393 106.29921 M 368.50393 170.07874 L 368.50393 173.62204 M 372.04724 177.16535 L 372.04724 152.36220 M 372.04724 138.18897 L 372.04724 124.01575 M 375.59054 106.29921 L 375.59054 138.18897 M 375.59054 152.36220 L 375.59054 177.16535 M 382.67716 138.18897 L 382.67716 152.36220 M 382.67716 177.16535 L 382.67716 187.79527 M 386.22046 127.55905 L 386.22046 124.01575 M 389.76377 152.36220 L 389.76377 162.99212 M 304.72440 88.22834 L 308.26771 88.22834 M 315.35432 88.22834 L 347.24409 88.22834 M 354.33070 88.22834 L 357.87401 88.22834 M 297.63779 95.31496 L 304.72440 95.31496 M 357.87401 95.31496 L 364.96062 95.31496 M 294.09448 102.40157 L 297.63779 102.40157 M 364.96062 102.40157 L 368.50393 102.40157 M 315.35432 103.11023 L 347.24409 103.11023 M 287.00787 105.94488 L 294.09448 105.94488 M 308.26771 105.94488 L 322.44094 105.94488 M 340.15747 105.94488 L 354.33070 105.94488 M 368.50393 105.94488 L 375.59054 105.94488 M 325.98424 109.48819 L 336.61417 109.48819 M 276.37795 123.66141 L 287.00787 123.66141 M 322.44094 123.66141 L 325.98424 123.66141 M 336.61417 123.66141 L 340.15747 123.66141 M 375.59054 123.66141 L 386.22046 123.66141 M 276.37795 127.91338 L 287.00787 127.91338 M 375.59054 127.91338 L 386.22046 127.91338 M 322.44094 131.45669 L 325.98424 131.45669 M 336.61417 131.45669 L 340.15747 131.45669 M 279.92125 137.83464 L 287.00787 137.83464 M 322.44094 137.83464 L 325.98424 137.83464 M 336.61417 137.83464 L 340.15747 137.83464 M 375.59054 137.83464 L 382.67716 137.83464 M 322.44094 149.17322 L 325.98424 149.17322 M 336.61417 149.17322 L 340.15747 149.17322 M 272.83464 152.00787 L 279.92125 152.00787 M 382.67716 152.00787 L 389.76377 152.00787 M 304.72440 159.80315 L 308.26771 159.80315 M 354.33070 159.80315 L 357.87401 159.80315 M 272.83464 163.34645 L 287.00787 163.34645 M 375.59054 163.34645 L 389.76377 163.34645 M 290.55117 166.88976 L 304.72440 166.88976 M 308.26771 166.88976 L 322.44094 166.88976 M 340.15747 166.88976 L 354.33070 166.88976 M 357.87401 166.88976 L 372.04724 166.88976 M 294.09448 169.72441 L 297.63779 169.72441 M 301.18110 169.72441 L 304.72440 169.72441 M 311.81102 169.72441 L 325.98424 169.72441 M 336.61417 169.72441 L 350.78739 169.72441 M 357.87401 169.72441 L 361.41731 169.72441 M 364.96062 169.72441 L 368.50393 169.72441 M 294.09448 173.97637 L 297.63779 173.97637 M 311.81102 173.97637 L 325.98424 173.97637 M 336.61417 173.97637 L 350.78739 173.97637 M 364.96062 173.97637 L 368.50393 173.97637 M 279.92125 176.81102 L 287.00787 176.81102 M 290.55117 176.81102 L 301.18110 176.81102 M 315.35432 176.81102 L 325.98424 176.81102 M 336.61417 176.81102 L 347.24409 176.81102 M 361.41731 176.81102 L 372.04724 176.81102 M 375.59054 176.81102 L 382.67716 176.81102 M 315.35432 181.06299 L 325.98424 181.06299 M 336.61417 181.06299 L 347.24409 181.06299 M 322.44094 183.89763 L 325.98424 183.89763 M 336.61417 183.89763 L 340.15747 183.89763 M 279.92125 188.14960 L 301.18110 188.14960 M 361.41731 188.14960 L 382.67716 188.14960 M 301.18110 209.40944 L 304.72440 209.40944 M 322.44094 209.40944 L 340.15747 209.40944 M 357.87401 209.40944 L 361.41731 209.40944 M 272.48031 152.36220 L 272.48031 162.99212 M 276.02362 124.01575 L 276.02362 127.55905 M 279.56692 138.18897 L 279.56692 152.36220 M 279.56692 177.16535 L 279.56692 187.79527 M 286.65354 106.29921 L 286.65354 124.01575 M 286.65354 127.55905 L 286.65354 138.18897 M 286.65354 162.99212 L 286.65354 177.16535 M 290.90550 166.53543 L 290.90550 177.16535 M 293.74015 102.75590 L 293.74015 106.29921 M 293.74015 170.07874 L 293.74015 173.62204 M 297.28346 95.66929 L 297.28346 102.75590 M 297.99212 170.07874 L 297.99212 173.62204 M 300.82676 170.07874 L 300.82676 177.16535 M 300.82676 187.79527 L 300.82676 209.05511 M 304.37007 88.58267 L 304.37007 95.66929 M 305.07873 159.44881 L 305.07873 166.53543 M 305.07873 170.07874 L 305.07873 209.05511 M 307.91338 159.44881 L 307.91338 166.53543 M 308.62204 88.58267 L 308.62204 106.29921 M 311.45669 170.07874 L 311.45669 173.62204 M 314.99999 88.58267 L 314.99999 102.75590 M 314.99999 177.16535 L 314.99999 180.70866 M 322.08661 184.25196 L 322.08661 209.05511 M 322.79527 106.29921 L 322.79527 124.01575 M 322.79527 131.10236 L 322.79527 138.18897 M 322.79527 148.81889 L 322.79527 166.53543 M 325.62991 109.84252 L 325.62991 124.01575 M 325.62991 131.10236 L 325.62991 138.18897 M 325.62991 148.81889 L 325.62991 170.07874 M 325.62991 173.62204 L 325.62991 177.16535 M 325.62991 180.70866 L 325.62991 184.25196 M 336.96850 109.84252 L 336.96850 124.01575 M 336.96850 131.10236 L 336.96850 138.18897 M 336.96850 148.81889 L 336.96850 170.07874 M 336.96850 173.62204 L 336.96850 177.16535 M 336.96850 180.70866 L 336.96850 184.25196 M 339.80314 106.29921 L 339.80314 124.01575 M 339.80314 131.10236 L 339.80314 138.18897 M 339.80314 148.81889 L 339.80314 166.53543 M 340.51180 184.25196 L 340.51180 209.05511 M 347.59842 88.58267 L 347.59842 102.75590 M 347.59842 177.16535 L 347.59842 180.70866 M 351.14172 170.07874 L 351.14172 173.62204 M 353.97637 88.58267 L 353.97637 106.29921 M 354.68503 159.44881 L 354.68503 166.53543 M 357.51968 159.44881 L 357.51968 166.53543 M 357.51968 170.07874 L 357.51968 209.05511 M 358.22834 88.58267 L 358.22834 95.66929 M 361.77164 170.07874 L 361.77164 177.16535 M 361.77164 187.79527 L 361.77164 209.05511 M 364.60629 170.07874 L 364.60629 173.62204 M 365.31495 95.66929 L 365.31495 102.75590 M 368.85826 102.75590 L 368.85826 106.29921 M 368.85826 170.07874 L 368.85826 173.62204 M 371.69290 166.53543 L 371.69290 177.16535 M 375.94487 106.29921 L 375.94487 124.01575 M 375.94487 127.55905 L 375.94487 138.18897 M 375.94487 162.99212 L 375.94487 177.16535 M 383.03149 138.18897 L 383.03149 152.36220 M 383.03149 177.16535 L 383.03149 187.79527 M 386.57479 124.01575 L 386.57479 127.55905 M 390.11810 152.36220 L 390.11810 162.99212 M 488.97637 92.12598 L 499.60629 92.12598 M 531.49605 92.12598 L 542.12597 92.12598 M 549.21258 95.66929 L 517.32282 95.66929 M 513.77952 95.66929 L 481.88975 95.66929 M 549.21258 109.84252 L 517.32282 109.84252 M 513.77952 109.84252 L 481.88975 109.84252 M 549.21258 116.92913 L 481.88975 116.92913 M 467.71652 120.47244 L 481.88975 120.47244 M 549.21258 120.47244 L 563.38581 120.47244 M 563.38581 124.01575 L 549.21258 124.01575 M 481.88975 124.01575 L 467.71652 124.01575 M 457.08660 134.64567 L 481.88975 134.64567 M 492.51967 134.64567 L 538.58266 134.64567 M 549.21258 134.64567 L 574.01573 134.64567 M 549.21258 138.18897 L 481.88975 138.18897 M 499.60629 141.73228 L 531.49605 141.73228 M 481.88975 148.81889 L 499.60629 148.81889 M 531.49605 148.81889 L 549.21258 148.81889 M 549.21258 152.36220 L 531.49605 152.36220 M 499.60629 152.36220 L 481.88975 152.36220 M 549.21258 159.44881 L 481.88975 159.44881 M 457.08660 162.99212 L 510.23621 162.99212 M 520.86613 162.99212 L 574.01573 162.99212 M 474.80314 170.07874 L 478.34645 170.07874 M 552.75589 170.07874 L 556.29920 170.07874 M 474.80314 177.16535 L 478.34645 177.16535 M 552.75589 177.16535 L 556.29920 177.16535 M 478.34645 205.51181 L 510.23621 205.51181 M 520.86613 205.51181 L 552.75589 205.51181 M 510.23621 212.59842 L 520.86613 212.59842 M 457.08660 162.99212 L 457.08660 134.64567 M 467.71652 120.47244 L 467.71652 124.01575 M 474.80314 170.07874 L 474.80314 177.16535 M 478.34645 205.51181 L 478.34645 162.99212 M 481.88975 95.66929 L 481.88975 109.84252 M 481.88975 116.92913 L 481.88975 162.99212 M 488.97637 92.12598 L 488.97637 95.66929 M 488.97637 109.84252 L 488.97637 116.92913 M 488.97637 148.81889 L 488.97637 152.36220 M 492.51967 152.36220 L 492.51967 148.81889 M 492.51967 138.18897 L 492.51967 116.92913 M 499.60629 159.44881 L 499.60629 138.18897 M 499.60629 95.66929 L 499.60629 92.12598 M 510.23621 141.73228 L 510.23621 212.59842 M 513.77952 116.92913 L 513.77952 95.66929 M 517.32282 95.66929 L 517.32282 116.92913 M 520.86613 212.59842 L 520.86613 141.73228 M 531.49605 92.12598 L 531.49605 95.66929 M 531.49605 138.18897 L 531.49605 159.44881 M 538.58266 116.92913 L 538.58266 138.18897 M 538.58266 148.81889 L 538.58266 152.36220 M 542.12597 152.36220 L 542.12597 148.81889 M 542.12597 116.92913 L 542.12597 109.84252 M 542.12597 95.66929 L 542.12597 92.12598 M 549.21258 162.99212 L 549.21258 116.92913 M 549.21258 109.84252 L 549.21258 95.66929 M 552.75589 162.99212 L 552.75589 205.51181 M 556.29920 177.16535 L 556.29920 170.07874 M 563.38581 124.01575 L 563.38581 120.47244 M 574.01573 134.64567 L 574.01573 162.99212 M 488.97637 91.77165 L 499.60629 91.77165 M 531.49605 91.77165 L 542.12597 91.77165 M 481.88975 95.31496 L 488.97637 95.31496 M 499.60629 95.31496 L 513.77952 95.31496 M 517.32282 95.31496 L 531.49605 95.31496 M 542.12597 95.31496 L 549.21258 95.31496 M 481.88975 110.19685 L 488.97637 110.19685 M 542.12597 110.19685 L 549.21258 110.19685 M 481.88975 116.57480 L 488.97637 116.57480 M 513.77952 116.57480 L 517.32282 116.57480 M 542.12597 116.57480 L 549.21258 116.57480 M 467.71652 120.11811 L 481.88975 120.11811 M 549.21258 120.11811 L 563.38581 120.11811 M 467.71652 124.37008 L 481.88975 124.37008 M 549.21258 124.37008 L 563.38581 124.37008 M 457.08660 134.29134 L 481.88975 134.29134 M 549.21258 134.29134 L 574.01573 134.29134 M 457.08660 163.34645 L 478.34645 163.34645 M 552.75589 163.34645 L 574.01573 163.34645 M 474.80314 169.72441 L 478.34645 169.72441 M 552.75589 169.72441 L 556.29920 169.72441 M 474.80314 177.51968 L 478.34645 177.51968 M 552.75589 177.51968 L 556.29920 177.51968 M 478.34645 205.86614 L 510.23621 205.86614 M 520.86613 205.86614 L 552.75589 205.86614 M 510.23621 212.95275 L 520.86613 212.95275 M 456.73227 134.64567 L 456.73227 162.99212 M 467.36219 120.47244 L 467.36219 124.01575 M 474.44881 170.07874 L 474.44881 177.16535 M 477.99211 162.99212 L 477.99211 170.07874 M 477.99211 177.16535 L 477.99211 205.51181 M 481.53542 95.66929 L 481.53542 109.84252 M 481.53542 116.92913 L 481.53542 120.47244 M 481.53542 124.01575 L 481.53542 134.64567 M 488.62204 92.12598 L 488.62204 95.66929 M 488.62204 109.84252 L 488.62204 116.92913 M 499.96062 92.12598 L 499.96062 95.66929 M 509.88188 205.51181 L 509.88188 212.59842 M 514.13385 95.66929 L 514.13385 116.92913 M 516.96849 95.66929 L 516.96849 116.92913 M 521.22046 205.51181 L 521.22046 212.59842 M 531.14172 92.12598 L 531.14172 95.66929 M 542.48030 92.12598 L 542.48030 95.66929 M 542.48030 109.84252 L 542.48030 116.92913 M 549.56692 95.66929 L 549.56692 109.84252 M 549.56692 116.92913 L 549.56692 120.47244 M 549.56692 124.01575 L 549.56692 134.64567 M 553.11022 162.99212 L 553.11022 170.07874 M 553.11022 177.16535 L 553.11022 205.51181 M 556.65353 170.07874 L 556.65353 177.16535 M 563.74014 120.47244 L 563.74014 124.01575 M 574.37006 134.64567 L 574.37006 162.99212 M 141.73228 269.29133 L 152.36220 269.29133 M 152.36220 279.92125 L 141.73228 279.92125 M 141.73228 283.46456 L 152.36220 283.46456 M 173.62204 287.00787 L 159.44881 287.00787 M 134.64567 287.00787 L 120.47244 287.00787 M 138.18897 290.55117 L 155.90551 290.55117 M 99.21260 297.63779 L 109.84252 297.63779 M 116.92913 297.63779 L 120.47244 297.63779 M 173.62204 297.63779 L 177.16535 297.63779 M 184.25196 297.63779 L 194.88189 297.63779 M 173.62204 301.18110 L 120.47244 301.18110 M 116.92913 304.72440 L 177.16535 304.72440 M 95.66929 311.81102 L 131.10236 311.81102 M 162.99212 311.81102 L 198.42519 311.81102 M 148.81889 315.35432 L 145.27559 315.35432 M 88.58267 325.98424 L 145.27559 325.98424 M 148.81889 325.98424 L 205.51181 325.98424 M 209.05511 329.52755 L 152.36220 329.52755 M 141.73228 329.52755 L 85.03937 329.52755 M 212.59842 336.61417 L 191.33858 336.61417 M 102.75590 336.61417 L 81.49606 336.61417 M 170.07874 343.70078 L 152.36220 343.70078 M 141.73228 343.70078 L 124.01575 343.70078 M 124.01575 354.33070 L 170.07874 354.33070 M 212.59842 357.87401 L 162.99212 357.87401 M 131.10236 357.87401 L 81.49606 357.87401 M 120.47244 361.41731 L 173.62204 361.41731 M 109.84252 375.59054 L 120.47244 375.59054 M 173.62204 375.59054 L 184.25196 375.59054 M 184.25196 379.13385 L 173.62204 379.13385 M 120.47244 379.13385 L 109.84252 379.13385 M 120.47244 382.67716 L 173.62204 382.67716 M 81.49606 357.87401 L 81.49606 336.61417 M 85.03937 329.52755 L 85.03937 336.61417 M 88.58267 329.52755 L 88.58267 325.98424 M 95.66929 325.98424 L 95.66929 311.81102 M 99.21260 297.63779 L 99.21260 311.81102 M 99.21260 325.98424 L 99.21260 329.52755 M 102.75590 357.87401 L 102.75590 329.52755 M 109.84252 379.13385 L 109.84252 375.59054 M 109.84252 311.81102 L 109.84252 297.63779 M 116.92913 304.72440 L 116.92913 297.63779 M 120.47244 287.00787 L 120.47244 304.72440 M 120.47244 361.41731 L 120.47244 382.67716 M 124.01575 357.87401 L 124.01575 329.52755 M 127.55905 325.98424 L 127.55905 329.52755 M 131.10236 361.41731 L 131.10236 354.33070 M 131.10236 325.98424 L 131.10236 304.72440 M 134.64567 287.00787 L 134.64567 301.18110 M 138.18897 304.72440 L 138.18897 290.55117 M 141.73228 269.29133 L 141.73228 279.92125 M 141.73228 283.46456 L 141.73228 301.18110 M 141.73228 329.52755 L 141.73228 354.33070 M 141.73228 382.67716 L 141.73228 400.39369 M 145.27559 325.98424 L 145.27559 301.18110 M 148.81889 301.18110 L 148.81889 325.98424 M 152.36220 400.39369 L 152.36220 382.67716 M 152.36220 354.33070 L 152.36220 329.52755 M 152.36220 301.18110 L 152.36220 283.46456 M 152.36220 279.92125 L 152.36220 269.29133 M 155.90551 290.55117 L 155.90551 304.72440 M 159.44881 301.18110 L 159.44881 287.00787 M 162.99212 304.72440 L 162.99212 325.98424 M 162.99212 354.33070 L 162.99212 361.41731 M 166.53543 329.52755 L 166.53543 325.98424 M 170.07874 329.52755 L 170.07874 357.87401 M 173.62204 382.67716 L 173.62204 361.41731 M 173.62204 304.72440 L 173.62204 287.00787 M 177.16535 297.63779 L 177.16535 304.72440 M 184.25196 297.63779 L 184.25196 311.81102 M 184.25196 375.59054 L 184.25196 379.13385 M 191.33858 329.52755 L 191.33858 357.87401 M 194.88189 329.52755 L 194.88189 325.98424 M 194.88189 311.81102 L 194.88189 297.63779 M 198.42519 311.81102 L 198.42519 325.98424 M 205.51181 325.98424 L 205.51181 329.52755 M 209.05511 336.61417 L 209.05511 329.52755 M 212.59842 336.61417 L 212.59842 357.87401 M 141.73228 268.93700 L 152.36220 268.93700 M 141.73228 280.27558 L 152.36220 280.27558 M 141.73228 283.11023 L 152.36220 283.11023 M 120.47244 286.65354 L 134.64567 286.65354 M 159.44881 286.65354 L 173.62204 286.65354 M 138.18897 290.19684 L 141.73228 290.19684 M 152.36220 290.19684 L 155.90551 290.19684 M 99.21260 297.28346 L 109.84252 297.28346 M 116.92913 297.28346 L 120.47244 297.28346 M 173.62204 297.28346 L 177.16535 297.28346 M 184.25196 297.28346 L 194.88189 297.28346 M 134.64567 300.82676 L 138.18897 300.82676 M 155.90551 300.82676 L 159.44881 300.82676 M 116.92913 305.07873 L 131.10236 305.07873 M 162.99212 305.07873 L 177.16535 305.07873 M 95.66929 311.45669 L 99.21260 311.45669 M 109.84252 311.45669 L 131.10236 311.45669 M 162.99212 311.45669 L 184.25196 311.45669 M 194.88189 311.45669 L 198.42519 311.45669 M 145.27559 315.70865 L 148.81889 315.70865 M 88.58267 325.62991 L 95.66929 325.62991 M 198.42519 325.62991 L 205.51181 325.62991 M 127.55905 326.33857 L 145.27559 326.33857 M 148.81889 326.33857 L 166.53543 326.33857 M 85.03937 329.17322 L 88.58267 329.17322 M 127.55905 329.17322 L 141.73228 329.17322 M 152.36220 329.17322 L 166.53543 329.17322 M 205.51181 329.17322 L 209.05511 329.17322 M 81.49606 336.25983 L 85.03937 336.25983 M 209.05511 336.25983 L 212.59842 336.25983 M 141.73228 353.97637 L 152.36220 353.97637 M 81.49606 358.22834 L 131.10236 358.22834 M 162.99212 358.22834 L 212.59842 358.22834 M 120.47244 361.06298 L 131.10236 361.06298 M 162.99212 361.06298 L 173.62204 361.06298 M 109.84252 375.23621 L 120.47244 375.23621 M 173.62204 375.23621 L 184.25196 375.23621 M 109.84252 379.48818 L 120.47244 379.48818 M 173.62204 379.48818 L 184.25196 379.48818 M 120.47244 383.03149 L 141.73228 383.03149 M 152.36220 383.03149 L 173.62204 383.03149 M 141.73228 400.74802 L 152.36220 400.74802 M 81.14173 336.61417 L 81.14173 357.87401 M 84.68504 329.52755 L 84.68504 336.61417 M 88.22834 325.98424 L 88.22834 329.52755 M 95.31496 311.81102 L 95.31496 325.98424 M 98.85827 297.63779 L 98.85827 311.81102 M 109.48819 375.59054 L 109.48819 379.13385 M 110.19685 297.63779 L 110.19685 311.81102 M 116.57480 297.63779 L 116.57480 304.72440 M 120.11811 287.00787 L 120.11811 297.63779 M 120.11811 361.41731 L 120.11811 375.59054 M 120.11811 379.13385 L 120.11811 382.67716 M 127.91338 325.98424 L 127.91338 329.52755 M 130.74803 304.72440 L 130.74803 311.81102 M 130.74803 357.87401 L 130.74803 361.41731 M 135.00000 287.00787 L 135.00000 301.18110 M 137.83464 290.55117 L 137.83464 301.18110 M 141.37795 269.29133 L 141.37795 279.92125 M 141.37795 283.46456 L 141.37795 290.55117 M 141.37795 382.67716 L 141.37795 400.39369 M 142.08661 329.52755 L 142.08661 354.33070 M 145.62992 315.35432 L 145.62992 325.98424 M 148.46456 315.35432 L 148.46456 325.98424 M 152.00787 329.52755 L 152.00787 354.33070 M 152.71653 269.29133 L 152.71653 279.92125 M 152.71653 283.46456 L 152.71653 290.55117 M 152.71653 382.67716 L 152.71653 400.39369 M 156.25984 290.55117 L 156.25984 301.18110 M 159.09448 287.00787 L 159.09448 301.18110 M 163.34645 304.72440 L 163.34645 311.81102 M 163.34645 357.87401 L 163.34645 361.41731 M 166.18110 325.98424 L 166.18110 329.52755 M 173.97637 287.00787 L 173.97637 297.63779 M 173.97637 361.41731 L 173.97637 375.59054 M 173.97637 379.13385 L 173.97637 382.67716 M 177.51968 297.63779 L 177.51968 304.72440 M 183.89763 297.63779 L 183.89763 311.81102 M 184.60629 375.59054 L 184.60629 379.13385 M 195.23622 297.63779 L 195.23622 311.81102 M 198.77952 311.81102 L 198.77952 325.98424 M 205.86614 325.98424 L 205.86614 329.52755 M 209.40944 329.52755 L 209.40944 336.61417 M 212.95275 336.61417 L 212.95275 357.87401 M 354.33070 272.83464 L 343.70078 272.83464 M 318.89763 272.83464 L 308.26771 272.83464 M 304.72440 276.37795 L 322.44094 276.37795 M 340.15747 276.37795 L 357.87401 276.37795 M 311.81102 283.46456 L 322.44094 283.46456 M 340.15747 283.46456 L 350.78739 283.46456 M 364.96062 287.00787 L 347.24409 287.00787 M 315.35432 287.00787 L 297.63779 287.00787 M 279.92125 290.55117 L 283.46456 290.55117 M 379.13385 290.55117 L 382.67716 290.55117 M 379.13385 294.09448 L 372.04724 294.09448 M 290.55117 294.09448 L 283.46456 294.09448 M 279.92125 297.63779 L 283.46456 297.63779 M 315.35432 297.63779 L 347.24409 297.63779 M 379.13385 297.63779 L 382.67716 297.63779 M 315.35432 304.72440 L 347.24409 304.72440 M 382.67716 308.26771 L 279.92125 308.26771 M 283.46456 311.81102 L 379.13385 311.81102 M 283.46456 318.89763 L 301.18110 318.89763 M 361.41731 318.89763 L 379.13385 318.89763 M 375.59054 322.44094 L 361.41731 322.44094 M 301.18110 322.44094 L 287.00787 322.44094 M 276.37795 325.98424 L 279.92125 325.98424 M 301.18110 325.98424 L 308.26771 325.98424 M 354.33070 325.98424 L 361.41731 325.98424 M 382.67716 325.98424 L 386.22046 325.98424 M 379.13385 329.52755 L 375.59054 329.52755 M 287.00787 329.52755 L 283.46456 329.52755 M 283.46456 333.07086 L 301.18110 333.07086 M 361.41731 333.07086 L 379.13385 333.07086 M 301.18110 340.15747 L 318.89763 340.15747 M 343.70078 340.15747 L 361.41731 340.15747 M 354.33070 343.70078 L 308.26771 343.70078 M 379.13385 350.78739 L 283.46456 350.78739 M 276.37795 354.33070 L 279.92125 354.33070 M 325.98424 354.33070 L 336.61417 354.33070 M 382.67716 354.33070 L 386.22046 354.33070 M 325.98424 361.41731 L 336.61417 361.41731 M 276.37795 368.50393 L 283.46456 368.50393 M 379.13385 368.50393 L 386.22046 368.50393 M 379.13385 379.13385 L 347.24409 379.13385 M 343.70078 379.13385 L 318.89763 379.13385 M 315.35432 379.13385 L 283.46456 379.13385 M 343.70078 393.30708 L 318.89763 393.30708 M 276.37795 325.98424 L 276.37795 368.50393 M 279.92125 368.50393 L 279.92125 308.26771 M 279.92125 297.63779 L 279.92125 290.55117 M 283.46456 290.55117 L 283.46456 379.13385 M 287.00787 333.07086 L 287.00787 322.44094 M 290.55117 294.09448 L 290.55117 308.26771 M 297.63779 287.00787 L 297.63779 308.26771 M 301.18110 350.78739 L 301.18110 311.81102 M 304.72440 276.37795 L 304.72440 287.00787 M 308.26771 350.78739 L 308.26771 311.81102 M 308.26771 276.37795 L 308.26771 272.83464 M 311.81102 276.37795 L 311.81102 287.00787 M 315.35432 379.13385 L 315.35432 350.78739 M 315.35432 311.81102 L 315.35432 287.00787 M 318.89763 272.83464 L 318.89763 276.37795 M 318.89763 311.81102 L 318.89763 340.15747 M 318.89763 379.13385 L 318.89763 393.30708 M 322.44094 283.46456 L 322.44094 276.37795 M 325.98424 354.33070 L 325.98424 361.41731 M 336.61417 361.41731 L 336.61417 354.33070 M 340.15747 276.37795 L 340.15747 283.46456 M 343.70078 393.30708 L 343.70078 379.13385 M 343.70078 340.15747 L 343.70078 311.81102 M 343.70078 276.37795 L 343.70078 272.83464 M 347.24409 287.00787 L 347.24409 311.81102 M 347.24409 350.78739 L 347.24409 379.13385 M 350.78739 287.00787 L 350.78739 276.37795 M 354.33070 272.83464 L 354.33070 276.37795 M 354.33070 311.81102 L 354.33070 350.78739 M 357.87401 287.00787 L 357.87401 276.37795 M 361.41731 311.81102 L 361.41731 350.78739 M 364.96062 308.26771 L 364.96062 287.00787 M 372.04724 308.26771 L 372.04724 294.09448 M 375.59054 322.44094 L 375.59054 333.07086 M 379.13385 379.13385 L 379.13385 290.55117 M 382.67716 290.55117 L 382.67716 297.63779 M 382.67716 308.26771 L 382.67716 368.50393 M 386.22046 368.50393 L 386.22046 325.98424 M 308.26771 272.48031 L 318.89763 272.48031 M 343.70078 272.48031 L 354.33070 272.48031 M 304.72440 276.02362 L 308.26771 276.02362 M 318.89763 276.02362 L 322.44094 276.02362 M 340.15747 276.02362 L 343.70078 276.02362 M 354.33070 276.02362 L 357.87401 276.02362 M 311.81102 283.81889 L 322.44094 283.81889 M 340.15747 283.81889 L 350.78739 283.81889 M 297.63779 286.65354 L 304.72440 286.65354 M 311.81102 286.65354 L 315.35432 286.65354 M 347.24409 286.65354 L 350.78739 286.65354 M 357.87401 286.65354 L 364.96062 286.65354 M 279.92125 290.19684 L 283.46456 290.19684 M 379.13385 290.19684 L 382.67716 290.19684 M 283.46456 293.74015 L 290.55117 293.74015 M 372.04724 293.74015 L 379.13385 293.74015 M 315.35432 297.28346 L 347.24409 297.28346 M 279.92125 297.99212 L 283.46456 297.99212 M 379.13385 297.99212 L 382.67716 297.99212 M 279.92125 307.91338 L 283.46456 307.91338 M 290.55117 307.91338 L 297.63779 307.91338 M 364.96062 307.91338 L 372.04724 307.91338 M 379.13385 307.91338 L 382.67716 307.91338 M 318.89763 312.16535 L 343.70078 312.16535 M 283.46456 319.25196 L 301.18110 319.25196 M 361.41731 319.25196 L 379.13385 319.25196 M 287.00787 322.08661 L 301.18110 322.08661 M 361.41731 322.08661 L 375.59054 322.08661 M 276.37795 325.62991 L 279.92125 325.62991 M 382.67716 325.62991 L 386.22046 325.62991 M 283.46456 329.17322 L 287.00787 329.17322 M 375.59054 329.17322 L 379.13385 329.17322 M 308.26771 340.51180 L 318.89763 340.51180 M 343.70078 340.51180 L 354.33070 340.51180 M 308.26771 343.34645 L 354.33070 343.34645 M 315.35432 351.14172 L 347.24409 351.14172 M 325.98424 353.97637 L 336.61417 353.97637 M 325.98424 361.77164 L 336.61417 361.77164 M 276.37795 368.85826 L 283.46456 368.85826 M 379.13385 368.85826 L 386.22046 368.85826 M 318.89763 378.77952 L 343.70078 378.77952 M 283.46456 379.48818 L 315.35432 379.48818 M 347.24409 379.48818 L 379.13385 379.48818 M 318.89763 393.66141 L 343.70078 393.66141 M 276.02362 325.98424 L 276.02362 368.50393 M 279.56692 290.55117 L 279.56692 297.63779 M 279.56692 308.26771 L 279.56692 325.98424 M 283.11023 297.63779 L 283.11023 308.26771 M 283.11023 368.50393 L 283.11023 379.13385 M 283.81889 290.55117 L 283.81889 294.09448 M 283.81889 318.89763 L 283.81889 329.52755 M 286.65354 322.44094 L 286.65354 329.52755 M 290.90550 294.09448 L 290.90550 308.26771 M 297.28346 287.00787 L 297.28346 308.26771 M 300.82676 318.89763 L 300.82676 322.44094 M 304.37007 276.37795 L 304.37007 287.00787 M 307.91338 272.83464 L 307.91338 276.37795 M 308.62204 340.15747 L 308.62204 343.70078 M 312.16535 283.46456 L 312.16535 287.00787 M 315.70865 287.00787 L 315.70865 297.63779 M 315.70865 350.78739 L 315.70865 379.13385 M 318.54330 379.13385 L 318.54330 393.30708 M 319.25196 272.83464 L 319.25196 276.37795 M 319.25196 311.81102 L 319.25196 340.15747 M 322.79527 276.37795 L 322.79527 283.46456 M 325.62991 354.33070 L 325.62991 361.41731 M 336.96850 354.33070 L 336.96850 361.41731 M 339.80314 276.37795 L 339.80314 283.46456 M 343.34645 272.83464 L 343.34645 276.37795 M 343.34645 311.81102 L 343.34645 340.15747 M 344.05511 379.13385 L 344.05511 393.30708 M 346.88976 287.00787 L 346.88976 297.63779 M 346.88976 350.78739 L 346.88976 379.13385 M 350.43306 283.46456 L 350.43306 287.00787 M 353.97637 340.15747 L 353.97637 343.70078 M 354.68503 272.83464 L 354.68503 276.37795 M 358.22834 276.37795 L 358.22834 287.00787 M 361.77164 318.89763 L 361.77164 322.44094 M 365.31495 287.00787 L 365.31495 308.26771 M 371.69290 294.09448 L 371.69290 308.26771 M 375.94487 322.44094 L 375.94487 329.52755 M 378.77952 290.55117 L 378.77952 294.09448 M 378.77952 318.89763 L 378.77952 329.52755 M 379.48818 297.63779 L 379.48818 308.26771 M 379.48818 368.50393 L 379.48818 379.13385 M 383.03149 290.55117 L 383.03149 297.63779 M 383.03149 308.26771 L 383.03149 325.98424 M 386.57479 325.98424 L 386.57479 368.50393 M 510.23621 269.29133 L 520.86613 269.29133 M 520.86613 272.83464 L 510.23621 272.83464 M 513.77952 283.46456 L 517.32282 283.46456 M 556.29920 287.00787 L 552.75589 287.00787 M 478.34645 287.00787 L 474.80314 287.00787 M 499.60629 290.55117 L 513.77952 290.55117 M 517.32282 290.55117 L 531.49605 290.55117 M 517.32282 294.09448 L 513.77952 294.09448 M 549.21258 301.18110 L 517.32282 301.18110 M 513.77952 301.18110 L 481.88975 301.18110 M 474.80314 304.72440 L 478.34645 304.72440 M 481.88975 304.72440 L 513.77952 304.72440 M 517.32282 304.72440 L 549.21258 304.72440 M 552.75589 304.72440 L 556.29920 304.72440 M 566.92912 308.26771 L 535.03936 308.26771 M 517.32282 308.26771 L 513.77952 308.26771 M 496.06298 308.26771 L 464.17322 308.26771 M 464.17322 311.81102 L 566.92912 311.81102 M 559.84251 322.44094 L 520.86613 322.44094 M 510.23621 322.44094 L 471.25983 322.44094 M 464.17322 325.98424 L 471.25983 325.98424 M 559.84251 325.98424 L 566.92912 325.98424 M 566.92912 329.52755 L 559.84251 329.52755 M 520.86613 329.52755 L 510.23621 329.52755 M 471.25983 329.52755 L 464.17322 329.52755 M 467.71652 333.07086 L 471.25983 333.07086 M 559.84251 333.07086 L 563.38581 333.07086 M 510.23621 347.24409 L 520.86613 347.24409 M 563.38581 350.78739 L 559.84251 350.78739 M 471.25983 350.78739 L 467.71652 350.78739 M 506.69290 354.33070 L 524.40944 354.33070 M 563.38581 357.87401 L 524.40944 357.87401 M 506.69290 357.87401 L 467.71652 357.87401 M 478.34645 361.41731 L 552.75589 361.41731 M 531.49605 364.96062 L 520.86613 364.96062 M 510.23621 364.96062 L 499.60629 364.96062 M 481.88975 368.50393 L 488.97637 368.50393 M 542.12597 368.50393 L 549.21258 368.50393 M 549.21258 372.04724 L 481.88975 372.04724 M 467.71652 382.67716 L 478.34645 382.67716 M 552.75589 382.67716 L 563.38581 382.67716 M 478.34645 389.76377 L 552.75589 389.76377 M 464.17322 329.52755 L 464.17322 325.98424 M 464.17322 311.81102 L 464.17322 308.26771 M 467.71652 333.07086 L 467.71652 350.78739 M 467.71652 357.87401 L 467.71652 382.67716 M 471.25983 357.87401 L 471.25983 322.44094 M 474.80314 287.00787 L 474.80314 304.72440 M 478.34645 389.76377 L 478.34645 357.87401 M 478.34645 304.72440 L 478.34645 287.00787 M 481.88975 301.18110 L 481.88975 304.72440 M 481.88975 361.41731 L 481.88975 389.76377 M 488.97637 361.41731 L 488.97637 372.04724 M 496.06298 308.26771 L 496.06298 322.44094 M 499.60629 372.04724 L 499.60629 361.41731 M 499.60629 301.18110 L 499.60629 290.55117 M 503.14959 357.87401 L 503.14959 361.41731 M 506.69290 361.41731 L 506.69290 322.44094 M 510.23621 269.29133 L 510.23621 272.83464 M 510.23621 311.81102 L 510.23621 329.52755 M 510.23621 347.24409 L 510.23621 354.33070 M 510.23621 361.41731 L 510.23621 364.96062 M 513.77952 308.26771 L 513.77952 283.46456 M 517.32282 283.46456 L 517.32282 308.26771 M 520.86613 364.96062 L 520.86613 361.41731 M 520.86613 354.33070 L 520.86613 347.24409 M 520.86613 329.52755 L 520.86613 311.81102 M 520.86613 272.83464 L 520.86613 269.29133 M 524.40944 322.44094 L 524.40944 361.41731 M 527.95274 361.41731 L 527.95274 357.87401 M 531.49605 290.55117 L 531.49605 301.18110 M 531.49605 361.41731 L 531.49605 372.04724 M 535.03936 322.44094 L 535.03936 308.26771 M 542.12597 372.04724 L 542.12597 361.41731 M 549.21258 389.76377 L 549.21258 361.41731 M 549.21258 304.72440 L 549.21258 301.18110 M 552.75589 287.00787 L 552.75589 304.72440 M 552.75589 357.87401 L 552.75589 389.76377 M 556.29920 304.72440 L 556.29920 287.00787 M 559.84251 322.44094 L 559.84251 357.87401 M 563.38581 382.67716 L 563.38581 357.87401 M 563.38581 350.78739 L 563.38581 333.07086 M 566.92912 308.26771 L 566.92912 311.81102 M 566.92912 325.98424 L 566.92912 329.52755 M 510.23621 268.93700 L 520.86613 268.93700 M 510.23621 273.18897 L 520.86613 273.18897 M 513.77952 283.11023 L 517.32282 283.11023 M 474.80314 286.65354 L 478.34645 286.65354 M 552.75589 286.65354 L 556.29920 286.65354 M 499.60629 290.19684 L 513.77952 290.19684 M 517.32282 290.19684 L 531.49605 290.19684 M 481.88975 300.82676 L 499.60629 300.82676 M 531.49605 300.82676 L 549.21258 300.82676 M 474.80314 305.07873 L 478.34645 305.07873 M 481.88975 305.07873 L 513.77952 305.07873 M 517.32282 305.07873 L 549.21258 305.07873 M 552.75589 305.07873 L 556.29920 305.07873 M 464.17322 307.91338 L 496.06298 307.91338 M 535.03936 307.91338 L 566.92912 307.91338 M 513.77952 308.62204 L 517.32282 308.62204 M 496.06298 311.45669 L 535.03936 311.45669 M 464.17322 312.16535 L 496.06298 312.16535 M 535.03936 312.16535 L 566.92912 312.16535 M 471.25983 322.08661 L 496.06298 322.08661 M 535.03936 322.08661 L 559.84251 322.08661 M 506.69290 322.79527 L 510.23621 322.79527 M 520.86613 322.79527 L 524.40944 322.79527 M 464.17322 325.62991 L 471.25983 325.62991 M 559.84251 325.62991 L 566.92912 325.62991 M 464.17322 329.88188 L 471.25983 329.88188 M 510.23621 329.88188 L 520.86613 329.88188 M 559.84251 329.88188 L 566.92912 329.88188 M 467.71652 332.71653 L 471.25983 332.71653 M 559.84251 332.71653 L 563.38581 332.71653 M 510.23621 346.88976 L 520.86613 346.88976 M 467.71652 351.14172 L 471.25983 351.14172 M 559.84251 351.14172 L 563.38581 351.14172 M 506.69290 353.97637 L 510.23621 353.97637 M 520.86613 353.97637 L 524.40944 353.97637 M 467.71652 357.51968 L 471.25983 357.51968 M 559.84251 357.51968 L 563.38581 357.51968 M 503.14959 358.22834 L 506.69290 358.22834 M 524.40944 358.22834 L 527.95274 358.22834 M 503.14959 361.06298 L 506.69290 361.06298 M 524.40944 361.06298 L 527.95274 361.06298 M 510.23621 361.77164 L 520.86613 361.77164 M 499.60629 365.31495 L 510.23621 365.31495 M 520.86613 365.31495 L 531.49605 365.31495 M 481.88975 368.85826 L 488.97637 368.85826 M 542.12597 368.85826 L 549.21258 368.85826 M 481.88975 371.69290 L 488.97637 371.69290 M 499.60629 371.69290 L 531.49605 371.69290 M 542.12597 371.69290 L 549.21258 371.69290 M 467.71652 383.03149 L 478.34645 383.03149 M 552.75589 383.03149 L 563.38581 383.03149 M 478.34645 390.11810 L 552.75589 390.11810 M 463.81889 308.26771 L 463.81889 311.81102 M 463.81889 325.98424 L 463.81889 329.52755 M 467.36219 333.07086 L 467.36219 350.78739 M 467.36219 357.87401 L 467.36219 382.67716 M 470.90550 322.44094 L 470.90550 325.98424 M 470.90550 329.52755 L 470.90550 333.07086 M 470.90550 350.78739 L 470.90550 357.87401 M 474.44881 287.00787 L 474.44881 304.72440 M 477.99211 382.67716 L 477.99211 389.76377 M 478.70078 287.00787 L 478.70078 304.72440 M 481.53542 301.18110 L 481.53542 304.72440 M 482.24408 368.50393 L 482.24408 372.04724 M 488.62204 368.50393 L 488.62204 372.04724 M 495.70865 311.81102 L 495.70865 322.44094 M 496.41731 308.26771 L 496.41731 311.81102 M 499.25196 290.55117 L 499.25196 301.18110 M 499.96062 364.96062 L 499.96062 372.04724 M 503.50392 357.87401 L 503.50392 361.41731 M 506.33857 357.87401 L 506.33857 361.41731 M 507.04723 322.44094 L 507.04723 354.33070 M 509.88188 269.29133 L 509.88188 272.83464 M 509.88188 322.44094 L 509.88188 329.52755 M 509.88188 347.24409 L 509.88188 354.33070 M 510.59054 361.41731 L 510.59054 364.96062 M 513.42518 283.46456 L 513.42518 290.55117 M 513.42518 304.72440 L 513.42518 308.26771 M 517.67715 283.46456 L 517.67715 290.55117 M 517.67715 304.72440 L 517.67715 308.26771 M 520.51180 361.41731 L 520.51180 364.96062 M 521.22046 269.29133 L 521.22046 272.83464 M 521.22046 322.44094 L 521.22046 329.52755 M 521.22046 347.24409 L 521.22046 354.33070 M 524.05511 322.44094 L 524.05511 354.33070 M 524.76377 357.87401 L 524.76377 361.41731 M 527.59841 357.87401 L 527.59841 361.41731 M 531.14172 364.96062 L 531.14172 372.04724 M 531.85038 290.55117 L 531.85038 301.18110 M 534.68503 308.26771 L 534.68503 311.81102 M 535.39369 311.81102 L 535.39369 322.44094 M 542.48030 368.50393 L 542.48030 372.04724 M 548.85825 368.50393 L 548.85825 372.04724 M 549.56692 301.18110 L 549.56692 304.72440 M 552.40156 287.00787 L 552.40156 304.72440 M 553.11022 382.67716 L 553.11022 389.76377 M 556.65353 287.00787 L 556.65353 304.72440 M 560.19684 322.44094 L 560.19684 325.98424 M 560.19684 329.52755 L 560.19684 333.07086 M 560.19684 350.78739 L 560.19684 357.87401 M 563.74014 333.07086 L 563.74014 350.78739 M 563.74014 357.87401 L 563.74014 382.67716 M 567.28345 308.26771 L 567.28345 311.81102 M 567.28345 325.98424 L 567.28345 329.52755 M 134.64567 453.54330 L 159.44881 453.54330 M 162.99212 457.08660 L 159.44881 457.08660 M 134.64567 457.08660 L 131.10236 457.08660 M 124.01575 467.71652 L 131.10236 467.71652 M 162.99212 467.71652 L 170.07874 467.71652 M 113.38582 474.80314 L 180.70866 474.80314 M 194.88189 478.34645 L 99.21260 478.34645 M 99.21260 481.88975 L 120.47244 481.88975 M 173.62204 481.88975 L 194.88189 481.88975 M 194.88189 485.43306 L 177.16535 485.43306 M 116.92913 485.43306 L 99.21260 485.43306 M 177.16535 492.51967 L 173.62204 492.51967 M 120.47244 492.51967 L 116.92913 492.51967 M 201.96850 499.60629 L 194.88189 499.60629 M 99.21260 499.60629 L 92.12598 499.60629 M 177.16535 506.69290 L 116.92913 506.69290 M 201.96850 513.77952 L 194.88189 513.77952 M 166.53543 513.77952 L 159.44881 513.77952 M 134.64567 513.77952 L 127.55905 513.77952 M 99.21260 513.77952 L 92.12598 513.77952 M 141.73228 517.32282 L 145.27559 517.32282 M 148.81889 517.32282 L 152.36220 517.32282 M 194.88189 520.86613 L 177.16535 520.86613 M 116.92913 520.86613 L 99.21260 520.86613 M 92.12598 524.40944 L 106.29921 524.40944 M 187.79527 524.40944 L 201.96850 524.40944 M 184.25196 527.95274 L 166.53543 527.95274 M 127.55905 527.95274 L 109.84252 527.95274 M 166.53543 535.03936 L 127.55905 535.03936 M 88.58267 538.58266 L 109.84252 538.58266 M 184.25196 538.58266 L 205.51181 538.58266 M 205.51181 542.12597 L 194.88189 542.12597 M 99.21260 542.12597 L 88.58267 542.12597 M 184.25196 556.29920 L 166.53543 556.29920 M 127.55905 556.29920 L 109.84252 556.29920 M 127.55905 559.84251 L 166.53543 559.84251 M 194.88189 563.38581 L 184.25196 563.38581 M 109.84252 563.38581 L 99.21260 563.38581 M 109.84252 574.01573 L 113.38582 574.01573 M 180.70866 574.01573 L 184.25196 574.01573 M 88.58267 542.12597 L 88.58267 538.58266 M 92.12598 499.60629 L 92.12598 513.77952 M 92.12598 524.40944 L 92.12598 538.58266 M 99.21260 478.34645 L 99.21260 481.88975 M 99.21260 485.43306 L 99.21260 520.86613 M 99.21260 538.58266 L 99.21260 563.38581 M 106.29921 524.40944 L 106.29921 538.58266 M 109.84252 574.01573 L 109.84252 527.95274 M 113.38582 474.80314 L 113.38582 478.34645 M 113.38582 556.29920 L 113.38582 574.01573 M 116.92913 527.95274 L 116.92913 485.43306 M 120.47244 478.34645 L 120.47244 506.69290 M 124.01575 474.80314 L 124.01575 467.71652 M 127.55905 506.69290 L 127.55905 559.84251 M 131.10236 474.80314 L 131.10236 457.08660 M 134.64567 453.54330 L 134.64567 474.80314 M 134.64567 506.69290 L 134.64567 535.03936 M 141.73228 506.69290 L 141.73228 535.03936 M 145.27559 535.03936 L 145.27559 517.32282 M 148.81889 517.32282 L 148.81889 535.03936 M 152.36220 535.03936 L 152.36220 506.69290 M 159.44881 535.03936 L 159.44881 506.69290 M 159.44881 474.80314 L 159.44881 453.54330 M 162.99212 457.08660 L 162.99212 474.80314 M 166.53543 559.84251 L 166.53543 506.69290 M 170.07874 467.71652 L 170.07874 474.80314 M 173.62204 506.69290 L 173.62204 478.34645 M 177.16535 485.43306 L 177.16535 527.95274 M 180.70866 574.01573 L 180.70866 556.29920 M 180.70866 478.34645 L 180.70866 474.80314 M 184.25196 527.95274 L 184.25196 574.01573 M 187.79527 538.58266 L 187.79527 524.40944 M 194.88189 563.38581 L 194.88189 538.58266 M 194.88189 520.86613 L 194.88189 485.43306 M 194.88189 481.88975 L 194.88189 478.34645 M 201.96850 538.58266 L 201.96850 524.40944 M 201.96850 513.77952 L 201.96850 499.60629 M 205.51181 538.58266 L 205.51181 542.12597 M 134.64567 453.18897 L 159.44881 453.18897 M 131.10236 456.73227 L 134.64567 456.73227 M 159.44881 456.73227 L 162.99212 456.73227 M 124.01575 467.36219 L 131.10236 467.36219 M 162.99212 467.36219 L 170.07874 467.36219 M 113.38582 474.44881 L 124.01575 474.44881 M 170.07874 474.44881 L 180.70866 474.44881 M 99.21260 477.99211 L 113.38582 477.99211 M 180.70866 477.99211 L 194.88189 477.99211 M 99.21260 482.24408 L 120.47244 482.24408 M 173.62204 482.24408 L 194.88189 482.24408 M 99.21260 485.07873 L 116.92913 485.07873 M 177.16535 485.07873 L 194.88189 485.07873 M 116.92913 492.16534 L 120.47244 492.16534 M 173.62204 492.16534 L 177.16535 492.16534 M 92.12598 499.25196 L 99.21260 499.25196 M 194.88189 499.25196 L 201.96850 499.25196 M 127.55905 507.04723 L 134.64567 507.04723 M 141.73228 507.04723 L 152.36220 507.04723 M 159.44881 507.04723 L 166.53543 507.04723 M 127.55905 513.42518 L 134.64567 513.42518 M 159.44881 513.42518 L 166.53543 513.42518 M 92.12598 514.13385 L 99.21260 514.13385 M 194.88189 514.13385 L 201.96850 514.13385 M 141.73228 516.96849 L 145.27559 516.96849 M 148.81889 516.96849 L 152.36220 516.96849 M 99.21260 521.22046 L 116.92913 521.22046 M 177.16535 521.22046 L 194.88189 521.22046 M 92.12598 524.05511 L 106.29921 524.05511 M 187.79527 524.05511 L 201.96850 524.05511 M 109.84252 527.59841 L 116.92913 527.59841 M 177.16535 527.59841 L 184.25196 527.59841 M 145.27559 534.68503 L 148.81889 534.68503 M 88.58267 538.22833 L 92.12598 538.22833 M 106.29921 538.22833 L 109.84252 538.22833 M 184.25196 538.22833 L 187.79527 538.22833 M 201.96850 538.22833 L 205.51181 538.22833 M 88.58267 542.48030 L 99.21260 542.48030 M 194.88189 542.48030 L 205.51181 542.48030 M 113.38582 556.65353 L 127.55905 556.65353 M 166.53543 556.65353 L 180.70866 556.65353 M 127.55905 560.19684 L 166.53543 560.19684 M 99.21260 563.74014 L 109.84252 563.74014 M 184.25196 563.74014 L 194.88189 563.74014 M 109.84252 574.37006 L 113.38582 574.37006 M 180.70866 574.37006 L 184.25196 574.37006 M 88.22834 538.58266 L 88.22834 542.12597 M 91.77165 499.60629 L 91.77165 513.77952 M 91.77165 524.40944 L 91.77165 538.58266 M 98.85827 478.34645 L 98.85827 481.88975 M 98.85827 485.43306 L 98.85827 499.60629 M 98.85827 513.77952 L 98.85827 520.86613 M 98.85827 542.12597 L 98.85827 563.38581 M 106.65354 524.40944 L 106.65354 538.58266 M 109.48819 527.95274 L 109.48819 538.58266 M 109.48819 563.38581 L 109.48819 574.01573 M 113.03149 474.80314 L 113.03149 478.34645 M 113.74015 556.29920 L 113.74015 574.01573 M 116.57480 520.86613 L 116.57480 527.95274 M 117.28346 485.43306 L 117.28346 492.51967 M 120.11811 481.88975 L 120.11811 492.51967 M 123.66141 467.71652 L 123.66141 474.80314 M 127.20472 556.29920 L 127.20472 559.84251 M 127.91338 506.69290 L 127.91338 513.77952 M 130.74803 457.08660 L 130.74803 467.71652 M 134.29134 453.54330 L 134.29134 457.08660 M 134.29134 506.69290 L 134.29134 513.77952 M 142.08661 506.69290 L 142.08661 517.32282 M 145.62992 517.32282 L 145.62992 535.03936 M 148.46456 517.32282 L 148.46456 535.03936 M 152.00787 506.69290 L 152.00787 517.32282 M 159.80315 453.54330 L 159.80315 457.08660 M 159.80315 506.69290 L 159.80315 513.77952 M 163.34645 457.08660 L 163.34645 467.71652 M 166.18110 506.69290 L 166.18110 513.77952 M 166.88976 556.29920 L 166.88976 559.84251 M 170.43307 467.71652 L 170.43307 474.80314 M 173.97637 481.88975 L 173.97637 492.51967 M 176.81102 485.43306 L 176.81102 492.51967 M 177.51968 520.86613 L 177.51968 527.95274 M 180.35433 556.29920 L 180.35433 574.01573 M 181.06299 474.80314 L 181.06299 478.34645 M 184.60629 527.95274 L 184.60629 538.58266 M 184.60629 563.38581 L 184.60629 574.01573 M 187.44094 524.40944 L 187.44094 538.58266 M 195.23622 478.34645 L 195.23622 481.88975 M 195.23622 485.43306 L 195.23622 499.60629 M 195.23622 513.77952 L 195.23622 520.86613 M 195.23622 542.12597 L 195.23622 563.38581 M 202.32283 499.60629 L 202.32283 513.77952 M 202.32283 524.40944 L 202.32283 538.58266 M 205.86614 538.58266 L 205.86614 542.12597 M 322.44094 453.54330 L 325.98424 453.54330 M 336.61417 453.54330 L 340.15747 453.54330 M 336.61417 464.17322 L 325.98424 464.17322 M 315.35432 467.71652 L 329.52755 467.71652 M 333.07086 467.71652 L 347.24409 467.71652 M 308.26771 474.80314 L 329.52755 474.80314 M 333.07086 474.80314 L 354.33070 474.80314 M 318.89763 481.88975 L 329.52755 481.88975 M 333.07086 481.88975 L 343.70078 481.88975 M 287.00787 488.97637 L 308.26771 488.97637 M 354.33070 488.97637 L 375.59054 488.97637 M 375.59054 492.51967 L 354.33070 492.51967 M 333.07086 492.51967 L 329.52755 492.51967 M 308.26771 492.51967 L 287.00787 492.51967 M 287.00787 496.06298 L 318.89763 496.06298 M 343.70078 496.06298 L 375.59054 496.06298 M 364.96062 499.60629 L 354.33070 499.60629 M 308.26771 499.60629 L 297.63779 499.60629 M 279.92125 510.23621 L 315.35432 510.23621 M 347.24409 510.23621 L 382.67716 510.23621 M 386.22046 513.77952 L 382.67716 513.77952 M 279.92125 513.77952 L 276.37795 513.77952 M 318.89763 517.32282 L 343.70078 517.32282 M 393.30708 520.86613 L 386.22046 520.86613 M 347.24409 520.86613 L 315.35432 520.86613 M 276.37795 520.86613 L 269.29133 520.86613 M 279.92125 524.40944 L 315.35432 524.40944 M 347.24409 524.40944 L 382.67716 524.40944 M 393.30708 527.95274 L 382.67716 527.95274 M 361.41731 527.95274 L 301.18110 527.95274 M 279.92125 527.95274 L 269.29133 527.95274 M 294.09448 531.49605 L 329.52755 531.49605 M 333.07086 531.49605 L 368.50393 531.49605 M 336.61417 535.03936 L 333.07086 535.03936 M 329.52755 535.03936 L 325.98424 535.03936 M 382.67716 542.12597 L 372.04724 542.12597 M 368.50393 542.12597 L 294.09448 542.12597 M 290.55117 542.12597 L 279.92125 542.12597 M 294.09448 545.66928 L 315.35432 545.66928 M 347.24409 545.66928 L 368.50393 545.66928 M 347.24409 563.38581 L 315.35432 563.38581 M 294.09448 566.92912 L 315.35432 566.92912 M 347.24409 566.92912 L 368.50393 566.92912 M 372.04724 570.47243 L 368.50393 570.47243 M 294.09448 570.47243 L 290.55117 570.47243 M 347.24409 577.55904 L 315.35432 577.55904 M 269.29133 520.86613 L 269.29133 527.95274 M 276.37795 513.77952 L 276.37795 527.95274 M 279.92125 542.12597 L 279.92125 510.23621 M 287.00787 496.06298 L 287.00787 488.97637 M 290.55117 524.40944 L 290.55117 570.47243 M 294.09448 570.47243 L 294.09448 524.40944 M 297.63779 496.06298 L 297.63779 499.60629 M 301.18110 531.49605 L 301.18110 527.95274 M 304.72440 542.12597 L 304.72440 545.66928 M 308.26771 510.23621 L 308.26771 474.80314 M 315.35432 577.55904 L 315.35432 542.12597 M 315.35432 527.95274 L 315.35432 496.06298 M 315.35432 474.80314 L 315.35432 467.71652 M 318.89763 474.80314 L 318.89763 520.86613 M 322.44094 577.55904 L 322.44094 563.38581 M 322.44094 542.12597 L 322.44094 527.95274 M 322.44094 467.71652 L 322.44094 453.54330 M 325.98424 453.54330 L 325.98424 467.71652 M 325.98424 474.80314 L 325.98424 481.88975 M 325.98424 535.03936 L 325.98424 542.12597 M 329.52755 542.12597 L 329.52755 527.95274 M 329.52755 517.32282 L 329.52755 464.17322 M 333.07086 464.17322 L 333.07086 517.32282 M 333.07086 527.95274 L 333.07086 542.12597 M 336.61417 542.12597 L 336.61417 535.03936 M 336.61417 481.88975 L 336.61417 474.80314 M 336.61417 467.71652 L 336.61417 453.54330 M 340.15747 453.54330 L 340.15747 467.71652 M 340.15747 527.95274 L 340.15747 542.12597 M 340.15747 563.38581 L 340.15747 577.55904 M 343.70078 520.86613 L 343.70078 474.80314 M 347.24409 467.71652 L 347.24409 474.80314 M 347.24409 496.06298 L 347.24409 527.95274 M 347.24409 542.12597 L 347.24409 577.55904 M 354.33070 474.80314 L 354.33070 510.23621 M 357.87401 545.66928 L 357.87401 542.12597 M 361.41731 527.95274 L 361.41731 531.49605 M 364.96062 499.60629 L 364.96062 496.06298 M 368.50393 524.40944 L 368.50393 570.47243 M 372.04724 570.47243 L 372.04724 524.40944 M 375.59054 488.97637 L 375.59054 496.06298 M 382.67716 510.23621 L 382.67716 542.12597 M 386.22046 527.95274 L 386.22046 513.77952 M 393.30708 527.95274 L 393.30708 520.86613 M 322.44094 453.18897 L 325.98424 453.18897 M 336.61417 453.18897 L 340.15747 453.18897 M 325.98424 463.81889 L 336.61417 463.81889 M 315.35432 467.36219 L 322.44094 467.36219 M 340.15747 467.36219 L 347.24409 467.36219 M 308.26771 474.44881 L 315.35432 474.44881 M 347.24409 474.44881 L 354.33070 474.44881 M 325.98424 475.15747 L 329.52755 475.15747 M 333.07086 475.15747 L 336.61417 475.15747 M 325.98424 481.53542 L 329.52755 481.53542 M 333.07086 481.53542 L 336.61417 481.53542 M 287.00787 488.62204 L 308.26771 488.62204 M 354.33070 488.62204 L 375.59054 488.62204 M 329.52755 492.87400 L 333.07086 492.87400 M 287.00787 496.41731 L 297.63779 496.41731 M 364.96062 496.41731 L 375.59054 496.41731 M 297.63779 499.96062 L 308.26771 499.96062 M 354.33070 499.96062 L 364.96062 499.96062 M 279.92125 509.88188 L 308.26771 509.88188 M 354.33070 509.88188 L 382.67716 509.88188 M 276.37795 513.42518 L 279.92125 513.42518 M 382.67716 513.42518 L 386.22046 513.42518 M 329.52755 516.96849 L 333.07086 516.96849 M 269.29133 520.51180 L 276.37795 520.51180 M 386.22046 520.51180 L 393.30708 520.51180 M 294.09448 524.76377 L 315.35432 524.76377 M 347.24409 524.76377 L 368.50393 524.76377 M 301.18110 527.59841 L 315.35432 527.59841 M 347.24409 527.59841 L 361.41731 527.59841 M 269.29133 528.30707 L 279.92125 528.30707 M 382.67716 528.30707 L 393.30708 528.30707 M 294.09448 531.14172 L 301.18110 531.14172 M 361.41731 531.14172 L 368.50393 531.14172 M 322.44094 531.85038 L 329.52755 531.85038 M 333.07086 531.85038 L 340.15747 531.85038 M 325.98424 534.68503 L 329.52755 534.68503 M 333.07086 534.68503 L 336.61417 534.68503 M 322.44094 541.77164 L 325.98424 541.77164 M 336.61417 541.77164 L 340.15747 541.77164 M 279.92125 542.48030 L 290.55117 542.48030 M 304.72440 542.48030 L 315.35432 542.48030 M 347.24409 542.48030 L 357.87401 542.48030 M 372.04724 542.48030 L 382.67716 542.48030 M 304.72440 545.31495 L 315.35432 545.31495 M 347.24409 545.31495 L 357.87401 545.31495 M 294.09448 567.28345 L 315.35432 567.28345 M 347.24409 567.28345 L 368.50393 567.28345 M 290.55117 570.82676 L 294.09448 570.82676 M 368.50393 570.82676 L 372.04724 570.82676 M 315.35432 577.91337 L 347.24409 577.91337 M 268.93700 520.86613 L 268.93700 527.95274 M 276.02362 513.77952 L 276.02362 520.86613 M 279.56692 510.23621 L 279.56692 513.77952 M 279.56692 527.95274 L 279.56692 542.12597 M 286.65354 488.97637 L 286.65354 496.06298 M 290.19684 542.12597 L 290.19684 570.47243 M 294.44881 524.40944 L 294.44881 531.49605 M 294.44881 566.92912 L 294.44881 570.47243 M 297.28346 496.06298 L 297.28346 499.60629 M 300.82676 527.95274 L 300.82676 531.49605 M 305.07873 542.12597 L 305.07873 545.66928 M 307.91338 474.80314 L 307.91338 488.97637 M 307.91338 499.60629 L 307.91338 510.23621 M 314.99999 467.71652 L 314.99999 474.80314 M 314.99999 524.40944 L 314.99999 527.95274 M 314.99999 542.12597 L 314.99999 545.66928 M 314.99999 566.92912 L 314.99999 577.55904 M 322.08661 453.54330 L 322.08661 467.71652 M 322.79527 531.49605 L 322.79527 542.12597 M 325.62991 535.03936 L 325.62991 542.12597 M 326.33857 453.54330 L 326.33857 464.17322 M 326.33857 474.80314 L 326.33857 481.88975 M 329.17322 474.80314 L 329.17322 481.88975 M 329.17322 531.49605 L 329.17322 535.03936 M 329.88188 492.51967 L 329.88188 517.32282 M 332.71653 492.51967 L 332.71653 517.32282 M 333.42519 474.80314 L 333.42519 481.88975 M 333.42519 531.49605 L 333.42519 535.03936 M 336.25983 453.54330 L 336.25983 464.17322 M 336.25983 474.80314 L 336.25983 481.88975 M 336.96850 535.03936 L 336.96850 542.12597 M 339.80314 531.49605 L 339.80314 542.12597 M 340.51180 453.54330 L 340.51180 467.71652 M 347.59842 467.71652 L 347.59842 474.80314 M 347.59842 524.40944 L 347.59842 527.95274 M 347.59842 542.12597 L 347.59842 545.66928 M 347.59842 566.92912 L 347.59842 577.55904 M 354.68503 474.80314 L 354.68503 488.97637 M 354.68503 499.60629 L 354.68503 510.23621 M 357.51968 542.12597 L 357.51968 545.66928 M 361.77164 527.95274 L 361.77164 531.49605 M 365.31495 496.06298 L 365.31495 499.60629 M 368.14960 524.40944 L 368.14960 531.49605 M 368.14960 566.92912 L 368.14960 570.47243 M 372.40157 542.12597 L 372.40157 570.47243 M 375.94487 488.97637 L 375.94487 496.06298 M 383.03149 510.23621 L 383.03149 513.77952 M 383.03149 527.95274 L 383.03149 542.12597 M 386.57479 513.77952 L 386.57479 520.86613 M 393.66141 520.86613 L 393.66141 527.95274 M 513.77952 453.54330 L 517.32282 453.54330 M 513.77952 460.62991 L 517.32282 460.62991 M 538.58266 464.17322 L 527.95274 464.17322 M 517.32282 464.17322 L 513.77952 464.17322 M 503.14959 464.17322 L 492.51967 464.17322 M 549.21258 471.25983 L 481.88975 471.25983 M 566.92912 485.43306 L 563.38581 485.43306 M 559.84251 485.43306 L 549.21258 485.43306 M 481.88975 485.43306 L 471.25983 485.43306 M 467.71652 485.43306 L 464.17322 485.43306 M 467.71652 488.97637 L 563.38581 488.97637 M 563.38581 492.51967 L 549.21258 492.51967 M 481.88975 492.51967 L 467.71652 492.51967 M 457.08660 503.14959 L 481.88975 503.14959 M 549.21258 503.14959 L 574.01573 503.14959 M 457.08660 510.23621 L 467.71652 510.23621 M 563.38581 510.23621 L 574.01573 510.23621 M 566.92912 513.77952 L 563.38581 513.77952 M 556.29920 513.77952 L 474.80314 513.77952 M 467.71652 513.77952 L 464.17322 513.77952 M 464.17322 517.32282 L 467.71652 517.32282 M 563.38581 517.32282 L 566.92912 517.32282 M 566.92912 520.86613 L 556.29920 520.86613 M 474.80314 520.86613 L 464.17322 520.86613 M 566.92912 527.95274 L 556.29920 527.95274 M 474.80314 527.95274 L 464.17322 527.95274 M 467.71652 531.49605 L 496.06298 531.49605 M 535.03936 531.49605 L 563.38581 531.49605 M 467.71652 538.58266 L 478.34645 538.58266 M 552.75589 538.58266 L 563.38581 538.58266 M 524.40944 542.12597 L 517.32282 542.12597 M 513.77952 542.12597 L 506.69290 542.12597 M 531.49605 549.21258 L 499.60629 549.21258 M 478.34645 552.75589 L 506.69290 552.75589 M 524.40944 552.75589 L 552.75589 552.75589 M 542.12597 563.38581 L 524.40944 563.38581 M 506.69290 563.38581 L 488.97637 563.38581 M 474.80314 566.92912 L 478.34645 566.92912 M 552.75589 566.92912 L 556.29920 566.92912 M 552.75589 577.55904 L 542.12597 577.55904 M 488.97637 577.55904 L 478.34645 577.55904 M 506.69290 581.10235 L 524.40944 581.10235 M 457.08660 510.23621 L 457.08660 503.14959 M 464.17322 527.95274 L 464.17322 520.86613 M 464.17322 517.32282 L 464.17322 513.77952 M 464.17322 503.14959 L 464.17322 485.43306 M 467.71652 485.43306 L 467.71652 510.23621 M 467.71652 513.77952 L 467.71652 517.32282 M 467.71652 531.49605 L 467.71652 538.58266 M 471.25983 488.97637 L 471.25983 485.43306 M 474.80314 513.77952 L 474.80314 566.92912 M 478.34645 577.55904 L 478.34645 531.49605 M 481.88975 471.25983 L 481.88975 513.77952 M 488.97637 552.75589 L 488.97637 577.55904 M 492.51967 471.25983 L 492.51967 464.17322 M 496.06298 513.77952 L 496.06298 552.75589 M 499.60629 552.75589 L 499.60629 549.21258 M 503.14959 464.17322 L 503.14959 471.25983 M 506.69290 581.10235 L 506.69290 542.12597 M 513.77952 549.21258 L 513.77952 542.12597 M 513.77952 488.97637 L 513.77952 464.17322 M 513.77952 460.62991 L 513.77952 453.54330 M 517.32282 453.54330 L 517.32282 460.62991 M 517.32282 464.17322 L 517.32282 488.97637 M 517.32282 542.12597 L 517.32282 549.21258 M 524.40944 542.12597 L 524.40944 581.10235 M 527.95274 471.25983 L 527.95274 464.17322 M 531.49605 549.21258 L 531.49605 552.75589 M 535.03936 552.75589 L 535.03936 513.77952 M 538.58266 464.17322 L 538.58266 471.25983 M 542.12597 577.55904 L 542.12597 552.75589 M 549.21258 513.77952 L 549.21258 471.25983 M 552.75589 531.49605 L 552.75589 577.55904 M 556.29920 566.92912 L 556.29920 513.77952 M 559.84251 485.43306 L 559.84251 488.97637 M 563.38581 538.58266 L 563.38581 531.49605 M 563.38581 517.32282 L 563.38581 513.77952 M 563.38581 510.23621 L 563.38581 485.43306 M 566.92912 485.43306 L 566.92912 503.14959 M 566.92912 513.77952 L 566.92912 517.32282 M 566.92912 520.86613 L 566.92912 527.95274 M 574.01573 503.14959 L 574.01573 510.23621 M 513.77952 453.18897 L 517.32282 453.18897 M 513.77952 460.98424 L 517.32282 460.98424 M 492.51967 463.81889 L 503.14959 463.81889 M 513.77952 463.81889 L 517.32282 463.81889 M 527.95274 463.81889 L 538.58266 463.81889 M 481.88975 470.90550 L 492.51967 470.90550 M 503.14959 470.90550 L 513.77952 470.90550 M 517.32282 470.90550 L 527.95274 470.90550 M 538.58266 470.90550 L 549.21258 470.90550 M 464.17322 485.07873 L 467.71652 485.07873 M 471.25983 485.07873 L 481.88975 485.07873 M 549.21258 485.07873 L 559.84251 485.07873 M 563.38581 485.07873 L 566.92912 485.07873 M 467.71652 488.62204 L 471.25983 488.62204 M 559.84251 488.62204 L 563.38581 488.62204 M 457.08660 502.79526 L 464.17322 502.79526 M 566.92912 502.79526 L 574.01573 502.79526 M 467.71652 503.50392 L 481.88975 503.50392 M 549.21258 503.50392 L 563.38581 503.50392 M 457.08660 510.59054 L 467.71652 510.59054 M 563.38581 510.59054 L 574.01573 510.59054 M 464.17322 513.42518 L 467.71652 513.42518 M 474.80314 513.42518 L 481.88975 513.42518 M 549.21258 513.42518 L 556.29920 513.42518 M 563.38581 513.42518 L 566.92912 513.42518 M 496.06298 514.13385 L 535.03936 514.13385 M 464.17322 517.67715 L 467.71652 517.67715 M 563.38581 517.67715 L 566.92912 517.67715 M 464.17322 520.51180 L 474.80314 520.51180 M 556.29920 520.51180 L 566.92912 520.51180 M 464.17322 528.30707 L 474.80314 528.30707 M 556.29920 528.30707 L 566.92912 528.30707 M 467.71652 531.14172 L 474.80314 531.14172 M 556.29920 531.14172 L 563.38581 531.14172 M 474.80314 531.85038 L 478.34645 531.85038 M 552.75589 531.85038 L 556.29920 531.85038 M 474.80314 538.22833 L 478.34645 538.22833 M 552.75589 538.22833 L 556.29920 538.22833 M 467.71652 538.93699 L 474.80314 538.93699 M 556.29920 538.93699 L 563.38581 538.93699 M 506.69290 541.77164 L 513.77952 541.77164 M 517.32282 541.77164 L 524.40944 541.77164 M 499.60629 548.85825 L 506.69290 548.85825 M 513.77952 548.85825 L 517.32282 548.85825 M 524.40944 548.85825 L 531.49605 548.85825 M 496.06298 552.40156 L 499.60629 552.40156 M 531.49605 552.40156 L 535.03936 552.40156 M 488.97637 563.74014 L 506.69290 563.74014 M 524.40944 563.74014 L 542.12597 563.74014 M 474.80314 567.28345 L 478.34645 567.28345 M 552.75589 567.28345 L 556.29920 567.28345 M 478.34645 577.91337 L 488.97637 577.91337 M 542.12597 577.91337 L 552.75589 577.91337 M 506.69290 581.45668 L 524.40944 581.45668 M 456.73227 503.14959 L 456.73227 510.23621 M 463.81889 485.43306 L 463.81889 503.14959 M 463.81889 513.77952 L 463.81889 517.32282 M 463.81889 520.86613 L 463.81889 527.95274 M 467.36219 531.49605 L 467.36219 538.58266 M 468.07085 485.43306 L 468.07085 488.97637 M 468.07085 503.14959 L 468.07085 510.23621 M 468.07085 513.77952 L 468.07085 517.32282 M 470.90550 485.43306 L 470.90550 488.97637 M 474.44881 513.77952 L 474.44881 520.86613 M 474.44881 527.95274 L 474.44881 531.49605 M 474.44881 538.58266 L 474.44881 566.92912 M 475.15747 531.49605 L 475.15747 538.58266 M 477.99211 531.49605 L 477.99211 538.58266 M 477.99211 566.92912 L 477.99211 577.55904 M 481.53542 471.25983 L 481.53542 485.43306 M 481.53542 503.14959 L 481.53542 513.77952 M 489.33070 563.38581 L 489.33070 577.55904 M 492.16534 464.17322 L 492.16534 471.25983 M 496.41731 513.77952 L 496.41731 552.75589 M 499.25196 549.21258 L 499.25196 552.75589 M 503.50392 464.17322 L 503.50392 471.25983 M 506.33857 542.12597 L 506.33857 549.21258 M 506.33857 563.38581 L 506.33857 581.10235 M 513.42518 453.54330 L 513.42518 460.62991 M 513.42518 464.17322 L 513.42518 471.25983 M 514.13385 542.12597 L 514.13385 549.21258 M 516.96849 542.12597 L 516.96849 549.21258 M 517.67715 453.54330 L 517.67715 460.62991 M 517.67715 464.17322 L 517.67715 471.25983 M 524.76377 542.12597 L 524.76377 549.21258 M 524.76377 563.38581 L 524.76377 581.10235 M 527.59841 464.17322 L 527.59841 471.25983 M 531.85038 549.21258 L 531.85038 552.75589 M 534.68503 513.77952 L 534.68503 552.75589 M 538.93699 464.17322 L 538.93699 471.25983 M 541.77164 563.38581 L 541.77164 577.55904 M 549.56692 471.25983 L 549.56692 485.43306 M 549.56692 503.14959 L 549.56692 513.77952 M 553.11022 531.49605 L 553.11022 538.58266 M 553.11022 566.92912 L 553.11022 577.55904 M 555.94487 531.49605 L 555.94487 538.58266 M 556.65353 513.77952 L 556.65353 520.86613 M 556.65353 527.95274 L 556.65353 531.49605 M 556.65353 538.58266 L 556.65353 566.92912 M 560.19684 485.43306 L 560.19684 488.97637 M 563.03148 485.43306 L 563.03148 488.97637 M 563.03148 503.14959 L 563.03148 510.23621 M 563.03148 513.77952 L 563.03148 517.32282 M 563.74014 531.49605 L 563.74014 538.58266 M 567.28345 485.43306 L 567.28345 503.14959 M 567.28345 513.77952 L 567.28345 517.32282 M 567.28345 520.86613 L 567.28345 527.95274 M 574.37006 503.14959 L 574.37006 510.23621 M 170.07874 648.42518 L 155.90551 648.42518 M 138.18897 648.42518 L 124.01575 648.42518 M 106.29921 651.96849 L 187.79527 651.96849 M 187.79527 655.51180 L 170.07874 655.51180 M 124.01575 655.51180 L 106.29921 655.51180 M 124.01575 659.05510 L 127.55905 659.05510 M 166.53543 659.05510 L 170.07874 659.05510 M 113.38582 666.14172 L 124.01575 666.14172 M 170.07874 666.14172 L 180.70866 666.14172 M 187.79527 669.68502 L 177.16535 669.68502 M 116.92913 669.68502 L 106.29921 669.68502 M 124.01575 673.22833 L 170.07874 673.22833 M 120.47244 694.48817 L 124.01575 694.48817 M 170.07874 694.48817 L 173.62204 694.48817 M 205.51181 698.03148 L 201.96850 698.03148 M 191.33858 698.03148 L 177.16535 698.03148 M 173.62204 698.03148 L 120.47244 698.03148 M 116.92913 698.03148 L 102.75590 698.03148 M 92.12598 698.03148 L 88.58267 698.03148 M 88.58267 701.57479 L 92.12598 701.57479 M 116.92913 701.57479 L 138.18897 701.57479 M 155.90551 701.57479 L 177.16535 701.57479 M 201.96850 701.57479 L 205.51181 701.57479 M 205.51181 705.11809 L 155.90551 705.11809 M 138.18897 705.11809 L 88.58267 705.11809 M 127.55905 708.66140 L 131.10236 708.66140 M 138.18897 708.66140 L 141.73228 708.66140 M 152.36220 708.66140 L 155.90551 708.66140 M 162.99212 708.66140 L 166.53543 708.66140 M 155.90551 712.20471 L 138.18897 712.20471 M 131.10236 715.74801 L 134.64567 715.74801 M 159.44881 715.74801 L 162.99212 715.74801 M 131.10236 729.92124 L 138.18897 729.92124 M 155.90551 729.92124 L 162.99212 729.92124 M 155.90551 733.46455 L 138.18897 733.46455 M 88.58267 737.00786 L 131.10236 737.00786 M 162.99212 737.00786 L 205.51181 737.00786 M 184.25196 754.72439 L 155.90551 754.72439 M 138.18897 754.72439 L 109.84252 754.72439 M 138.18897 765.35431 L 155.90551 765.35431 M 88.58267 737.00786 L 88.58267 705.11809 M 88.58267 701.57479 L 88.58267 698.03148 M 92.12598 698.03148 L 92.12598 701.57479 M 102.75590 705.11809 L 102.75590 698.03148 M 106.29921 651.96849 L 106.29921 655.51180 M 106.29921 669.68502 L 106.29921 698.03148 M 109.84252 754.72439 L 109.84252 737.00786 M 109.84252 705.11809 L 109.84252 698.03148 M 113.38582 655.51180 L 113.38582 666.14172 M 113.38582 698.03148 L 113.38582 705.11809 M 116.92913 705.11809 L 116.92913 701.57479 M 116.92913 698.03148 L 116.92913 669.68502 M 120.47244 694.48817 L 120.47244 701.57479 M 124.01575 698.03148 L 124.01575 673.22833 M 124.01575 666.14172 L 124.01575 648.42518 M 127.55905 651.96849 L 127.55905 673.22833 M 127.55905 705.11809 L 127.55905 737.00786 M 131.10236 754.72439 L 131.10236 708.66140 M 134.64567 705.11809 L 134.64567 729.92124 M 138.18897 765.35431 L 138.18897 698.03148 M 138.18897 651.96849 L 138.18897 648.42518 M 141.73228 698.03148 L 141.73228 708.66140 M 152.36220 708.66140 L 152.36220 698.03148 M 155.90551 648.42518 L 155.90551 651.96849 M 155.90551 698.03148 L 155.90551 765.35431 M 159.44881 729.92124 L 159.44881 705.11809 M 162.99212 708.66140 L 162.99212 754.72439 M 166.53543 737.00786 L 166.53543 705.11809 M 166.53543 673.22833 L 166.53543 651.96849 M 170.07874 648.42518 L 170.07874 666.14172 M 170.07874 673.22833 L 170.07874 698.03148 M 173.62204 701.57479 L 173.62204 694.48817 M 177.16535 669.68502 L 177.16535 698.03148 M 177.16535 701.57479 L 177.16535 705.11809 M 180.70866 705.11809 L 180.70866 698.03148 M 180.70866 666.14172 L 180.70866 655.51180 M 184.25196 698.03148 L 184.25196 705.11809 M 184.25196 737.00786 L 184.25196 754.72439 M 187.79527 698.03148 L 187.79527 669.68502 M 187.79527 655.51180 L 187.79527 651.96849 M 191.33858 698.03148 L 191.33858 705.11809 M 201.96850 701.57479 L 201.96850 698.03148 M 205.51181 698.03148 L 205.51181 701.57479 M 205.51181 705.11809 L 205.51181 737.00786 M 124.01575 648.07085 L 138.18897 648.07085 M 155.90551 648.07085 L 170.07874 648.07085 M 106.29921 651.61416 L 124.01575 651.61416 M 138.18897 651.61416 L 155.90551 651.61416 M 170.07874 651.61416 L 187.79527 651.61416 M 106.29921 655.86613 L 113.38582 655.86613 M 180.70866 655.86613 L 187.79527 655.86613 M 124.01575 659.40943 L 127.55905 659.40943 M 166.53543 659.40943 L 170.07874 659.40943 M 113.38582 666.49605 L 124.01575 666.49605 M 170.07874 666.49605 L 180.70866 666.49605 M 106.29921 669.33069 L 116.92913 669.33069 M 177.16535 669.33069 L 187.79527 669.33069 M 124.01575 672.87400 L 127.55905 672.87400 M 166.53543 672.87400 L 170.07874 672.87400 M 120.47244 694.13384 L 124.01575 694.13384 M 170.07874 694.13384 L 173.62204 694.13384 M 88.58267 697.67715 L 92.12598 697.67715 M 102.75590 697.67715 L 106.29921 697.67715 M 187.79527 697.67715 L 191.33858 697.67715 M 201.96850 697.67715 L 205.51181 697.67715 M 113.38582 698.38581 L 116.92913 698.38581 M 141.73228 698.38581 L 152.36220 698.38581 M 177.16535 698.38581 L 180.70866 698.38581 M 116.92913 701.22046 L 120.47244 701.22046 M 173.62204 701.22046 L 177.16535 701.22046 M 88.58267 701.92912 L 92.12598 701.92912 M 201.96850 701.92912 L 205.51181 701.92912 M 88.58267 704.76376 L 102.75590 704.76376 M 113.38582 704.76376 L 116.92913 704.76376 M 177.16535 704.76376 L 180.70866 704.76376 M 191.33858 704.76376 L 205.51181 704.76376 M 127.55905 705.47242 L 134.64567 705.47242 M 159.44881 705.47242 L 166.53543 705.47242 M 127.55905 708.30707 L 131.10236 708.30707 M 162.99212 708.30707 L 166.53543 708.30707 M 138.18897 709.01573 L 141.73228 709.01573 M 152.36220 709.01573 L 155.90551 709.01573 M 138.18897 711.85038 L 155.90551 711.85038 M 131.10236 715.39368 L 134.64567 715.39368 M 159.44881 715.39368 L 162.99212 715.39368 M 88.58267 737.36219 L 109.84252 737.36219 M 184.25196 737.36219 L 205.51181 737.36219 M 109.84252 755.07872 L 138.18897 755.07872 M 155.90551 755.07872 L 184.25196 755.07872 M 138.18897 765.70864 L 155.90551 765.70864 M 88.22834 698.03148 L 88.22834 701.57479 M 88.22834 705.11809 L 88.22834 737.00786 M 92.48031 698.03148 L 92.48031 701.57479 M 102.40157 698.03148 L 102.40157 705.11809 M 105.94488 651.96849 L 105.94488 655.51180 M 105.94488 669.68502 L 105.94488 698.03148 M 109.48819 737.00786 L 109.48819 754.72439 M 113.03149 655.51180 L 113.03149 666.14172 M 113.74015 698.03148 L 113.74015 705.11809 M 116.57480 701.57479 L 116.57480 705.11809 M 117.28346 669.68502 L 117.28346 698.03148 M 120.11811 694.48817 L 120.11811 701.57479 M 123.66141 648.42518 L 123.66141 651.96849 M 123.66141 673.22833 L 123.66141 694.48817 M 124.37008 659.05510 L 124.37008 666.14172 M 127.20472 659.05510 L 127.20472 673.22833 M 127.91338 705.11809 L 127.91338 708.66140 M 131.45669 708.66140 L 131.45669 715.74801 M 134.29134 705.11809 L 134.29134 715.74801 M 137.83464 754.72439 L 137.83464 765.35431 M 138.54330 648.42518 L 138.54330 651.96849 M 138.54330 708.66140 L 138.54330 712.20471 M 142.08661 698.03148 L 142.08661 708.66140 M 152.00787 698.03148 L 152.00787 708.66140 M 155.55118 648.42518 L 155.55118 651.96849 M 155.55118 708.66140 L 155.55118 712.20471 M 156.25984 754.72439 L 156.25984 765.35431 M 159.80315 705.11809 L 159.80315 715.74801 M 162.63779 708.66140 L 162.63779 715.74801 M 166.18110 705.11809 L 166.18110 708.66140 M 166.88976 659.05510 L 166.88976 673.22833 M 169.72441 659.05510 L 169.72441 666.14172 M 170.43307 648.42518 L 170.43307 651.96849 M 170.43307 673.22833 L 170.43307 694.48817 M 173.97637 694.48817 L 173.97637 701.57479 M 176.81102 669.68502 L 176.81102 698.03148 M 177.51968 701.57479 L 177.51968 705.11809 M 180.35433 698.03148 L 180.35433 705.11809 M 181.06299 655.51180 L 181.06299 666.14172 M 184.60629 737.00786 L 184.60629 754.72439 M 188.14960 651.96849 L 188.14960 655.51180 M 188.14960 669.68502 L 188.14960 698.03148 M 191.69291 698.03148 L 191.69291 705.11809 M 201.61417 698.03148 L 201.61417 701.57479 M 205.86614 698.03148 L 205.86614 701.57479 M 205.86614 705.11809 L 205.86614 737.00786 M 322.44094 644.88187 L 340.15747 644.88187 M 375.59054 655.51180 L 372.04724 655.51180 M 290.55117 655.51180 L 287.00787 655.51180 M 290.55117 659.05510 L 294.09448 659.05510 M 308.26771 659.05510 L 315.35432 659.05510 M 347.24409 659.05510 L 354.33070 659.05510 M 368.50393 659.05510 L 372.04724 659.05510 M 364.96062 662.59841 L 297.63779 662.59841 M 294.09448 666.14172 L 297.63779 666.14172 M 364.96062 666.14172 L 368.50393 666.14172 M 364.96062 669.68502 L 297.63779 669.68502 M 290.55117 673.22833 L 294.09448 673.22833 M 329.52755 673.22833 L 333.07086 673.22833 M 368.50393 673.22833 L 372.04724 673.22833 M 279.92125 680.31494 L 290.55117 680.31494 M 318.89763 680.31494 L 343.70078 680.31494 M 372.04724 680.31494 L 382.67716 680.31494 M 386.22046 683.85825 L 368.50393 683.85825 M 294.09448 683.85825 L 276.37795 683.85825 M 294.09448 694.48817 L 318.89763 694.48817 M 343.70078 694.48817 L 368.50393 694.48817 M 389.76377 719.29132 L 386.22046 719.29132 M 276.37795 719.29132 L 272.83464 719.29132 M 294.09448 722.83463 L 318.89763 722.83463 M 343.70078 722.83463 L 368.50393 722.83463 M 389.76377 726.37793 L 386.22046 726.37793 M 276.37795 726.37793 L 272.83464 726.37793 M 364.96062 733.46455 L 354.33070 733.46455 M 308.26771 733.46455 L 297.63779 733.46455 M 294.09448 737.00786 L 308.26771 737.00786 M 318.89763 737.00786 L 343.70078 737.00786 M 354.33070 737.00786 L 368.50393 737.00786 M 294.09448 744.09447 L 301.18110 744.09447 M 308.26771 744.09447 L 315.35432 744.09447 M 347.24409 744.09447 L 354.33070 744.09447 M 361.41731 744.09447 L 368.50393 744.09447 M 386.22046 747.63778 L 368.50393 747.63778 M 294.09448 747.63778 L 276.37795 747.63778 M 318.89763 751.18108 L 325.98424 751.18108 M 336.61417 751.18108 L 343.70078 751.18108 M 354.33070 761.81101 L 347.24409 761.81101 M 315.35432 761.81101 L 308.26771 761.81101 M 318.89763 765.35431 L 325.98424 765.35431 M 336.61417 765.35431 L 343.70078 765.35431 M 272.83464 726.37793 L 272.83464 719.29132 M 276.37795 683.85825 L 276.37795 747.63778 M 279.92125 683.85825 L 279.92125 680.31494 M 287.00787 680.31494 L 287.00787 655.51180 M 290.55117 655.51180 L 290.55117 683.85825 M 294.09448 747.63778 L 294.09448 659.05510 M 297.63779 662.59841 L 297.63779 694.48817 M 297.63779 733.46455 L 297.63779 737.00786 M 301.18110 744.09447 L 301.18110 737.00786 M 308.26771 761.81101 L 308.26771 744.09447 M 308.26771 737.00786 L 308.26771 733.46455 M 308.26771 662.59841 L 308.26771 659.05510 M 315.35432 761.81101 L 315.35432 744.09447 M 315.35432 662.59841 L 315.35432 659.05510 M 318.89763 669.68502 L 318.89763 737.00786 M 318.89763 751.18108 L 318.89763 765.35431 M 322.44094 662.59841 L 322.44094 644.88187 M 325.98424 751.18108 L 325.98424 765.35431 M 329.52755 680.31494 L 329.52755 669.68502 M 333.07086 669.68502 L 333.07086 680.31494 M 336.61417 765.35431 L 336.61417 751.18108 M 340.15747 644.88187 L 340.15747 662.59841 M 343.70078 765.35431 L 343.70078 751.18108 M 343.70078 737.00786 L 343.70078 669.68502 M 347.24409 659.05510 L 347.24409 662.59841 M 347.24409 744.09447 L 347.24409 761.81101 M 354.33070 659.05510 L 354.33070 662.59841 M 354.33070 733.46455 L 354.33070 737.00786 M 354.33070 744.09447 L 354.33070 761.81101 M 361.41731 737.00786 L 361.41731 744.09447 M 364.96062 737.00786 L 364.96062 733.46455 M 364.96062 694.48817 L 364.96062 662.59841 M 368.50393 659.05510 L 368.50393 747.63778 M 372.04724 683.85825 L 372.04724 655.51180 M 375.59054 655.51180 L 375.59054 680.31494 M 382.67716 680.31494 L 382.67716 683.85825 M 386.22046 747.63778 L 386.22046 683.85825 M 389.76377 719.29132 L 389.76377 726.37793 M 322.44094 644.52754 L 340.15747 644.52754 M 287.00787 655.15746 L 290.55117 655.15746 M 372.04724 655.15746 L 375.59054 655.15746 M 290.55117 658.70077 L 294.09448 658.70077 M 308.26771 658.70077 L 315.35432 658.70077 M 347.24409 658.70077 L 354.33070 658.70077 M 368.50393 658.70077 L 372.04724 658.70077 M 297.63779 662.24408 L 308.26771 662.24408 M 315.35432 662.24408 L 322.44094 662.24408 M 340.15747 662.24408 L 347.24409 662.24408 M 354.33070 662.24408 L 364.96062 662.24408 M 294.09448 665.78739 L 297.63779 665.78739 M 364.96062 665.78739 L 368.50393 665.78739 M 329.52755 673.58266 L 333.07086 673.58266 M 279.92125 679.96061 L 287.00787 679.96061 M 329.52755 679.96061 L 333.07086 679.96061 M 375.59054 679.96061 L 382.67716 679.96061 M 276.37795 683.50392 L 279.92125 683.50392 M 382.67716 683.50392 L 386.22046 683.50392 M 272.83464 718.93699 L 276.37795 718.93699 M 386.22046 718.93699 L 389.76377 718.93699 M 294.09448 723.18896 L 318.89763 723.18896 M 343.70078 723.18896 L 368.50393 723.18896 M 272.83464 726.73227 L 276.37795 726.73227 M 386.22046 726.73227 L 389.76377 726.73227 M 297.63779 733.11022 L 308.26771 733.11022 M 354.33070 733.11022 L 364.96062 733.11022 M 294.09448 736.65353 L 297.63779 736.65353 M 364.96062 736.65353 L 368.50393 736.65353 M 301.18110 737.36219 L 308.26771 737.36219 M 318.89763 737.36219 L 343.70078 737.36219 M 354.33070 737.36219 L 361.41731 737.36219 M 308.26771 743.74014 L 315.35432 743.74014 M 347.24409 743.74014 L 354.33070 743.74014 M 294.09448 744.44880 L 301.18110 744.44880 M 361.41731 744.44880 L 368.50393 744.44880 M 276.37795 747.99211 L 294.09448 747.99211 M 368.50393 747.99211 L 386.22046 747.99211 M 318.89763 750.82675 L 325.98424 750.82675 M 336.61417 750.82675 L 343.70078 750.82675 M 308.26771 762.16534 L 315.35432 762.16534 M 347.24409 762.16534 L 354.33070 762.16534 M 318.89763 765.70864 L 325.98424 765.70864 M 336.61417 765.70864 L 343.70078 765.70864 M 272.48031 719.29132 L 272.48031 726.37793 M 276.02362 683.85825 L 276.02362 719.29132 M 276.02362 726.37793 L 276.02362 747.63778 M 279.56692 680.31494 L 279.56692 683.85825 M 286.65354 655.51180 L 286.65354 680.31494 M 290.90550 655.51180 L 290.90550 659.05510 M 294.44881 659.05510 L 294.44881 666.14172 M 294.44881 722.83463 L 294.44881 737.00786 M 294.44881 744.09447 L 294.44881 747.63778 M 297.28346 662.59841 L 297.28346 666.14172 M 297.28346 733.46455 L 297.28346 737.00786 M 301.53543 737.00786 L 301.53543 744.09447 M 307.91338 659.05510 L 307.91338 662.59841 M 307.91338 744.09447 L 307.91338 761.81101 M 308.62204 733.46455 L 308.62204 737.00786 M 315.70865 659.05510 L 315.70865 662.59841 M 315.70865 744.09447 L 315.70865 761.81101 M 318.54330 722.83463 L 318.54330 737.00786 M 318.54330 751.18108 L 318.54330 765.35431 M 322.08661 644.88187 L 322.08661 662.59841 M 326.33857 751.18108 L 326.33857 765.35431 M 329.88188 673.22833 L 329.88188 680.31494 M 332.71653 673.22833 L 332.71653 680.31494 M 336.25983 751.18108 L 336.25983 765.35431 M 340.51180 644.88187 L 340.51180 662.59841 M 344.05511 722.83463 L 344.05511 737.00786 M 344.05511 751.18108 L 344.05511 765.35431 M 346.88976 659.05510 L 346.88976 662.59841 M 346.88976 744.09447 L 346.88976 761.81101 M 353.97637 733.46455 L 353.97637 737.00786 M 354.68503 659.05510 L 354.68503 662.59841 M 354.68503 744.09447 L 354.68503 761.81101 M 361.06298 737.00786 L 361.06298 744.09447 M 365.31495 662.59841 L 365.31495 666.14172 M 365.31495 733.46455 L 365.31495 737.00786 M 368.14960 659.05510 L 368.14960 666.14172 M 368.14960 722.83463 L 368.14960 737.00786 M 368.14960 744.09447 L 368.14960 747.63778 M 371.69290 655.51180 L 371.69290 659.05510 M 375.94487 655.51180 L 375.94487 680.31494 M 383.03149 680.31494 L 383.03149 683.85825 M 386.57479 683.85825 L 386.57479 719.29132 M 386.57479 726.37793 L 386.57479 747.63778 M 390.11810 719.29132 L 390.11810 726.37793 M 510.23621 637.79526 L 520.86613 637.79526 M 538.58266 641.33857 L 492.51967 641.33857 M 492.51967 644.88187 L 538.58266 644.88187 M 520.86613 655.51180 L 510.23621 655.51180 M 485.43306 659.05510 L 545.66928 659.05510 M 549.21258 669.68502 L 481.88975 669.68502 M 481.88975 673.22833 L 510.23621 673.22833 M 520.86613 673.22833 L 549.21258 673.22833 M 520.86613 676.77164 L 517.32282 676.77164 M 513.77952 676.77164 L 510.23621 676.77164 M 513.77952 680.31494 L 517.32282 680.31494 M 520.86613 690.94487 L 517.32282 690.94487 M 513.77952 690.94487 L 510.23621 690.94487 M 464.17322 694.48817 L 481.88975 694.48817 M 549.21258 694.48817 L 566.92912 694.48817 M 517.32282 705.11809 L 513.77952 705.11809 M 481.88975 708.66140 L 510.23621 708.66140 M 520.86613 708.66140 L 549.21258 708.66140 M 549.21258 719.29132 L 520.86613 719.29132 M 517.32282 719.29132 L 513.77952 719.29132 M 510.23621 719.29132 L 481.88975 719.29132 M 570.47243 726.37793 L 566.92912 726.37793 M 464.17322 726.37793 L 460.62991 726.37793 M 460.62991 729.92124 L 481.88975 729.92124 M 510.23621 729.92124 L 520.86613 729.92124 M 549.21258 729.92124 L 570.47243 729.92124 M 563.38581 733.46455 L 520.86613 733.46455 M 510.23621 733.46455 L 467.71652 733.46455 M 510.23621 737.00786 L 520.86613 737.00786 M 520.86613 740.55116 L 510.23621 740.55116 M 471.25983 751.18108 L 510.23621 751.18108 M 520.86613 751.18108 L 559.84251 751.18108 M 510.23621 758.26770 L 520.86613 758.26770 M 460.62991 726.37793 L 460.62991 729.92124 M 464.17322 729.92124 L 464.17322 694.48817 M 467.71652 729.92124 L 467.71652 733.46455 M 471.25983 751.18108 L 471.25983 733.46455 M 481.88975 669.68502 L 481.88975 733.46455 M 485.43306 669.68502 L 485.43306 659.05510 M 492.51967 644.88187 L 492.51967 641.33857 M 496.06298 641.33857 L 496.06298 644.88187 M 506.69290 673.22833 L 506.69290 669.68502 M 510.23621 637.79526 L 510.23621 641.33857 M 510.23621 655.51180 L 510.23621 659.05510 M 510.23621 673.22833 L 510.23621 719.29132 M 510.23621 729.92124 L 510.23621 758.26770 M 513.77952 729.92124 L 513.77952 719.29132 M 513.77952 705.11809 L 513.77952 669.68502 M 517.32282 669.68502 L 517.32282 705.11809 M 517.32282 719.29132 L 517.32282 729.92124 M 520.86613 758.26770 L 520.86613 729.92124 M 520.86613 719.29132 L 520.86613 673.22833 M 520.86613 659.05510 L 520.86613 655.51180 M 520.86613 641.33857 L 520.86613 637.79526 M 524.40944 669.68502 L 524.40944 673.22833 M 535.03936 644.88187 L 535.03936 641.33857 M 538.58266 641.33857 L 538.58266 644.88187 M 545.66928 659.05510 L 545.66928 669.68502 M 549.21258 733.46455 L 549.21258 669.68502 M 559.84251 733.46455 L 559.84251 751.18108 M 563.38581 733.46455 L 563.38581 729.92124 M 566.92912 694.48817 L 566.92912 729.92124 M 570.47243 729.92124 L 570.47243 726.37793 M 510.23621 637.44093 L 520.86613 637.44093 M 492.51967 640.98424 L 510.23621 640.98424 M 520.86613 640.98424 L 538.58266 640.98424 M 492.51967 645.23620 L 538.58266 645.23620 M 510.23621 655.15746 L 520.86613 655.15746 M 485.43306 658.70077 L 510.23621 658.70077 M 520.86613 658.70077 L 545.66928 658.70077 M 481.88975 669.33069 L 485.43306 669.33069 M 545.66928 669.33069 L 549.21258 669.33069 M 506.69290 670.03935 L 513.77952 670.03935 M 517.32282 670.03935 L 524.40944 670.03935 M 506.69290 672.87400 L 510.23621 672.87400 M 520.86613 672.87400 L 524.40944 672.87400 M 510.23621 676.41731 L 513.77952 676.41731 M 517.32282 676.41731 L 520.86613 676.41731 M 510.23621 691.29920 L 513.77952 691.29920 M 517.32282 691.29920 L 520.86613 691.29920 M 464.17322 694.13384 L 481.88975 694.13384 M 549.21258 694.13384 L 566.92912 694.13384 M 513.77952 705.47242 L 517.32282 705.47242 M 513.77952 718.93699 L 517.32282 718.93699 M 481.88975 719.64565 L 510.23621 719.64565 M 520.86613 719.64565 L 549.21258 719.64565 M 460.62991 726.02360 L 464.17322 726.02360 M 566.92912 726.02360 L 570.47243 726.02360 M 510.23621 729.56691 L 513.77952 729.56691 M 517.32282 729.56691 L 520.86613 729.56691 M 460.62991 730.27557 L 467.71652 730.27557 M 563.38581 730.27557 L 570.47243 730.27557 M 481.88975 733.11022 L 510.23621 733.11022 M 520.86613 733.11022 L 549.21258 733.11022 M 467.71652 733.81888 L 471.25983 733.81888 M 559.84251 733.81888 L 563.38581 733.81888 M 471.25983 751.53541 L 510.23621 751.53541 M 520.86613 751.53541 L 559.84251 751.53541 M 510.23621 758.62203 L 520.86613 758.62203 M 460.27558 726.37793 L 460.27558 729.92124 M 463.81889 694.48817 L 463.81889 726.37793 M 467.36219 729.92124 L 467.36219 733.46455 M 470.90550 733.46455 L 470.90550 751.18108 M 481.53542 669.68502 L 481.53542 694.48817 M 482.24408 719.29132 L 482.24408 733.46455 M 485.07873 659.05510 L 485.07873 669.68502 M 492.16534 641.33857 L 492.16534 644.88187 M 507.04723 669.68502 L 507.04723 673.22833 M 509.88188 637.79526 L 509.88188 641.33857 M 509.88188 655.51180 L 509.88188 659.05510 M 509.88188 729.92124 L 509.88188 733.46455 M 509.88188 751.18108 L 509.88188 758.26770 M 510.59054 673.22833 L 510.59054 676.77164 M 510.59054 690.94487 L 510.59054 719.29132 M 513.42518 669.68502 L 513.42518 676.77164 M 513.42518 690.94487 L 513.42518 705.11809 M 513.42518 719.29132 L 513.42518 729.92124 M 517.67715 669.68502 L 517.67715 676.77164 M 517.67715 690.94487 L 517.67715 705.11809 M 517.67715 719.29132 L 517.67715 729.92124 M 520.51180 673.22833 L 520.51180 676.77164 M 520.51180 690.94487 L 520.51180 719.29132 M 521.22046 637.79526 L 521.22046 641.33857 M 521.22046 655.51180 L 521.22046 659.05510 M 521.22046 729.92124 L 521.22046 733.46455 M 521.22046 751.18108 L 521.22046 758.26770 M 524.05511 669.68502 L 524.05511 673.22833 M 538.93699 641.33857 L 538.93699 644.88187 M 546.02361 659.05510 L 546.02361 669.68502 M 548.85825 719.29132 L 548.85825 733.46455 M 549.56692 669.68502 L 549.56692 694.48817 M 560.19684 733.46455 L 560.19684 751.18108 M 563.74014 729.92124 L 563.74014 733.46455 M 567.28345 694.48817 L 567.28345 726.37793 M 570.82676 726.37793 L 570.82676 729.92124" fill="none" stroke="black" stroke-width="0.03cm" />
   </g>
</svg>